<?xml version="1.0" encoding="iso-8859-1"?>
<!-- Generator: Adobe Illustrator 19.0.0, SVG Export Plug-In . SVG Version: 6.00 Build 0)  -->
<svg version="1.1" id="Layer_1" xmlns="http://www.w3.org/2000/svg" xmlns:xlink="http://www.w3.org/1999/xlink" x="0px" y="0px"
	 viewBox="0 0 512 512" style="enable-background:new 0 0 512 512;" xml:space="preserve">
<polygon style="fill:#898890;" points="246.534,0 66.304,104.738 66.304,397.014 265.466,512 445.696,407.262 445.696,114.986 "/>
<polygon style="fill:#77767E;" points="265.466,219.724 445.696,114.986 445.696,407.262 265.466,512 "/>
<polygon style="fill:#ACABB1;" points="66.304,104.738 246.534,0 445.696,114.986 265.466,219.724 "/>
<polygon style="fill:#898890;" points="265.466,219.724 265.466,512 66.304,397.014 66.304,104.738 "/>
<polyline style="fill:#3E3D43;" points="242.426,238.69 89.087,150.159 88.662,299.894 242.426,388.425 242.426,238.69 "/>
<polyline style="fill:#77767E;" points="265.466,445.331 252.824,438.425 252.802,445.964 175.994,401.619 176.016,394.079 
	66.304,330.345 66.304,337.886 265.466,452.872 265.466,445.331 "/>
<polyline style="fill:#3E3D43;" points="252.824,438.425 176.016,394.079 175.994,401.619 252.802,445.964 252.824,438.425 "/>
<g>
	<polyline style="fill:#57565C;" points="431.084,334.701 284.206,419.502 284.206,428.383 431.084,343.583 431.084,334.701 	"/>
	<polyline style="fill:#57565C;" points="431.084,352.947 284.206,437.747 284.206,446.629 431.084,361.828 431.084,352.947 	"/>
	<polyline style="fill:#57565C;" points="431.084,371.197 284.206,455.997 284.206,464.879 431.084,380.078 431.084,371.197 	"/>
	<polyline style="fill:#57565C;" points="431.084,389.443 284.206,474.243 284.206,483.125 431.084,398.324 431.084,389.443 	"/>
</g>
<g>
</g>
<g>
</g>
<g>
</g>
<g>
</g>
<g>
</g>
<g>
</g>
<g>
</g>
<g>
</g>
<g>
</g>
<g>
</g>
<g>
</g>
<g>
</g>
<g>
</g>
<g>
</g>
<g>
</g>
</svg>
