<?xml version="1.0" encoding="iso-8859-1"?>
<!-- Generator: Adobe Illustrator 19.0.0, SVG Export Plug-In . SVG Version: 6.00 Build 0)  -->
<svg version="1.1" id="Layer_1" xmlns="http://www.w3.org/2000/svg" xmlns:xlink="http://www.w3.org/1999/xlink" x="0px" y="0px"
	 viewBox="0 0 512 512" style="enable-background:new 0 0 512 512;" xml:space="preserve">
<g>
	
		<rect x="311.867" y="2.47" transform="matrix(-0.707 -0.7072 0.7072 -0.707 503.7016 320.0896)" style="fill:#CFDCE5;" width="12.58" height="106.468"/>
	
		<rect x="140.622" y="49.414" transform="matrix(-0.7071 -0.7071 0.7071 -0.7071 291.533 232.1662)" style="fill:#CFDCE5;" width="106.456" height="12.58"/>
</g>
<path style="fill:#415E72;" d="M316.156,141.639H195.843c0-33.225,26.944-60.156,60.156-60.156
	C289.226,81.483,316.156,108.414,316.156,141.639z"/>
<path style="fill:#314A5F;" d="M269.841,83.102c-4.446-1.048-9.076-1.618-13.841-1.618c-33.211,0-60.156,26.93-60.156,60.156h27.677
	C223.521,113.18,243.297,89.355,269.841,83.102z"/>
<path style="fill:#CFDCE5;" d="M512,122.769v375.613H0V122.769h195.844h120.313H512z"/>
<g>
	<path style="fill:#BAC6CC;" d="M450.962,325.263c-9.248,0-17.941-3.601-24.478-10.139c-6.537-6.537-10.139-15.23-10.139-24.478
		c0-9.247,3.601-17.94,10.139-24.477l0,0c0.001,0,0.001,0,0.001,0c6.537-6.538,15.23-10.139,24.477-10.139
		c9.248,0,17.941,3.601,24.478,10.14c6.537,6.537,10.139,15.23,10.139,24.477c0,9.248-3.601,17.941-10.14,24.479
		C468.903,321.662,460.21,325.263,450.962,325.263z M450.962,274.902c-4.207,0-8.16,1.638-11.134,4.611c0,0,0,0-0.001,0
		c-2.973,2.974-4.611,6.928-4.611,11.134c0,4.207,1.638,8.161,4.611,11.134c2.974,2.974,6.928,4.612,11.135,4.612
		s8.16-1.637,11.134-4.611c2.974-2.974,4.612-6.928,4.612-11.135c0-4.206-1.638-8.16-4.611-11.134
		C459.123,276.538,455.169,274.902,450.962,274.902z M433.156,272.841h0.013H433.156z"/>
	<path style="fill:#BAC6CC;" d="M450.891,243.932c-5.742,0-11.514-1.417-16.748-4.333c-2.802-1.556-5.381-3.502-7.658-5.778
		c-2.277-2.277-4.222-4.857-5.785-7.668c-7.48-13.417-5.106-30.403,5.785-41.294c10.885-10.885,27.867-13.259,41.299-5.768
		c2.802,1.557,5.381,3.504,7.655,5.777c2.276,2.276,4.221,4.855,5.785,7.668c7.474,13.416,5.099,30.393-5.785,41.278l0,0
		C468.795,240.456,459.88,243.932,450.891,243.932z M468.768,227.139h0.013H468.768z M450.983,193.603
		c-4.086,0-8.135,1.579-11.153,4.598c-4.954,4.954-6.04,12.675-2.639,18.774c0.716,1.291,1.602,2.465,2.639,3.501
		c1.035,1.035,2.209,1.921,3.487,2.632c6.105,3.401,13.822,2.314,18.778-2.641l0,0c4.95-4.949,6.035-12.664,2.638-18.76
		c-0.716-1.288-1.6-2.463-2.638-3.499c-1.034-1.035-2.209-1.921-3.489-2.633C456.223,194.249,453.595,193.603,450.983,193.603z"/>
</g>
<g>
	<circle style="fill:#FF6F52;" cx="450.963" cy="290.65" r="25.186"/>
	<path style="fill:#FF6F52;" d="M468.768,227.139c-8.14,8.14-20.469,9.545-30.032,4.217c-2.002-1.112-3.879-2.509-5.578-4.208
		c-1.698-1.7-3.096-3.577-4.208-5.578c-5.337-9.571-3.931-21.901,4.208-30.041c8.131-8.131,20.461-9.536,30.032-4.199
		c2.002,1.112,3.879,2.509,5.578,4.208c1.7,1.7,3.096,3.577,4.208,5.578C478.304,206.68,476.899,219.009,468.768,227.139z"/>
</g>
<path style="fill:#314A5F;" d="M383.922,407.839c-3.232,17.752-17.473,31.492-35.38,33.73c-40.123,4.994-80.245,7.68-120.368,8.058
	c-46.741,0.462-93.494-2.224-140.248-8.058c-17.907-2.238-32.148-15.976-35.38-33.73c-11.919-65.542-11.919-131.084,0-196.627
	c3.232-17.752,17.473-31.506,35.38-33.73c68.004-8.478,135.995-10.311,203.986-5.527c18.872,1.33,37.758,3.175,56.631,5.527
	c17.907,2.224,32.148,15.976,35.38,33.73C395.842,276.755,395.842,342.297,383.922,407.839z"/>
<g>
	<path style="fill:#415E72;" d="M383.922,407.839c-3.232,17.752-17.473,31.492-35.38,33.73c-40.123,4.994-80.245,7.68-120.368,8.058
		c82.708-111.778,71.11-234.946,63.738-277.671c18.872,1.33,37.758,3.175,56.631,5.527c17.907,2.224,32.148,15.976,35.38,33.73
		C395.842,276.755,395.842,342.297,383.922,407.839z"/>
	<rect x="419.486" y="366.901" style="fill:#415E72;" width="62.941" height="12.581"/>
	<rect x="419.486" y="413.575" style="fill:#415E72;" width="62.941" height="12.581"/>
	<rect x="419.486" y="390.238" style="fill:#415E72;" width="62.941" height="12.581"/>
	<rect x="419.486" y="436.912" style="fill:#415E72;" width="62.941" height="12.581"/>
	<path style="fill:#415E72;" d="M472.976,197.116l-34.241,34.241c-2.002-1.112-3.879-2.509-5.578-4.208
		c-1.698-1.7-3.096-3.577-4.208-5.578l34.241-34.241c2.002,1.112,3.879,2.509,5.578,4.208S471.864,195.114,472.976,197.116z"/>
	<path style="fill:#415E72;" d="M457.882,266.435v48.423c-2.202,0.629-4.516,0.969-6.919,0.969s-4.718-0.34-6.919-0.969v-48.423
		c2.202-0.629,4.516-0.969,6.919-0.969S455.681,265.806,457.882,266.435z"/>
</g>
<g>
</g>
<g>
</g>
<g>
</g>
<g>
</g>
<g>
</g>
<g>
</g>
<g>
</g>
<g>
</g>
<g>
</g>
<g>
</g>
<g>
</g>
<g>
</g>
<g>
</g>
<g>
</g>
<g>
</g>
</svg>
