<?xml version="1.0" encoding="iso-8859-1"?>
<!-- Generator: Adobe Illustrator 19.0.0, SVG Export Plug-In . SVG Version: 6.00 Build 0)  -->
<svg version="1.1" id="Capa_1" xmlns="http://www.w3.org/2000/svg" xmlns:xlink="http://www.w3.org/1999/xlink" x="0px" y="0px"
	 viewBox="0 0 504.19 504.19" style="enable-background:new 0 0 504.19 504.19;" xml:space="preserve">
<g transform="translate(0 -1)">
	<g>
		<path style="fill:#BDC3C7;" d="M329.763,357.235h8.678c14.378,0,26.034,11.656,26.034,26.034v112.814
			c0,4.793-3.885,8.678-8.678,8.678H147.525c-4.787-0.014-8.664-3.891-8.678-8.678V383.269c-0.009-6.907,2.731-13.535,7.615-18.419
			s11.511-7.624,18.419-7.615H329.763z"/>
		<rect x="225.627" y="305.167" style="fill:#BDC3C7;" width="52.068" height="69.424"/>
		<path style="fill:#BDC3C7;" d="M241.729,220.387c-3.509-0.001-6.673-2.115-8.016-5.357c-1.343-3.242-0.601-6.974,1.88-9.456
			l28.097-28.847l-27.08-16.373c-4.112-2.462-5.449-7.791-2.987-11.903c2.462-4.112,7.791-5.449,11.903-2.987l36.627,22.089
			c2.295,1.372,3.828,3.727,4.156,6.38c0.328,2.654-0.587,5.31-2.479,7.2l-35.966,36.712
			C246.239,219.475,244.031,220.39,241.729,220.387z"/>
	</g>
	<path style="fill:#41767F;" d="M329.763,227.065c19.171,0,34.712,15.541,34.712,34.712s-15.541,34.712-34.712,34.712H173.559
		c-19.171,0-34.712-15.541-34.712-34.712s15.541-34.712,34.712-34.712H329.763z"/>
	<path style="fill:#D1D4D1;" d="M190.915,201.031h121.492c9.585,0,17.356,7.771,17.356,17.356v86.78
		c0,9.585-7.771,17.356-17.356,17.356H190.915c-9.585,0-17.356-7.771-17.356-17.356v-86.78
		C173.559,208.802,181.33,201.031,190.915,201.031z"/>
	<path style="fill:#41767F;" d="M294.263,296.489h-85.203c-4.793,0-8.678-3.885-8.678-8.678c0-4.793,3.885-8.678,8.678-8.678h85.203
		c4.793,0,8.678,3.885,8.678,8.678C302.941,292.604,299.055,296.489,294.263,296.489z"/>
	<g>
		<circle style="fill:#46B29D;" cx="234.305" cy="148.964" r="17.356"/>
		<path style="fill:#46B29D;" d="M216.949,261.777c-4.793,0-8.678-3.885-8.678-8.678v-17.356c0-4.793,3.885-8.678,8.678-8.678
			c4.793,0,8.678,3.885,8.678,8.678v17.356C225.627,257.892,221.742,261.777,216.949,261.777z"/>
		<path style="fill:#46B29D;" d="M286.373,261.777c-4.793,0-8.678-3.885-8.678-8.678v-17.356c0-4.793,3.885-8.678,8.678-8.678
			c4.793,0,8.678,3.885,8.678,8.678v17.356C295.051,257.892,291.166,261.777,286.373,261.777z"/>
		<path style="fill:#46B29D;" d="M172.692,132.103c0.596,1.841,0.889,3.767,0.868,5.703c-0.397,7.566-4.693,14.383-11.347,18.006
			s-14.711,3.533-21.282-0.238c-8.445,12.37-22.543,19.666-37.519,19.416c-14.976-0.25-28.823-8.011-36.851-20.656
			c-4.353,2.696-9.371,4.127-14.492,4.132c-6.742,0.169-13.274-2.349-18.157-7c-4.883-4.651-7.717-11.053-7.877-17.794
			c-0.021-2.044,0.271-4.079,0.868-6.034C10.534,119.379,0.152,102.667,0,84.333c0.327-13.413,5.969-26.147,15.685-35.4
			s22.71-14.268,36.123-13.94c3.028-0.024,6.051,0.253,9.025,0.826C62.904,15.97,79.844,1.023,99.797,1.438
			c13.776-0.137,26.617,6.95,33.844,18.678c2.977-1.432,6.242-2.167,9.546-2.149c11.692-0.274,21.399,8.97,21.695,20.662
			c0.003,1.448-0.172,2.892-0.521,4.297c24.244,1.258,43.404,21.02,43.91,45.291C207.951,109.301,193.253,127.431,172.692,132.103z"
			/>
	</g>
	<path style="fill:#CC4B4C;" d="M331.498,132.103c-0.596,1.841-0.889,3.767-0.868,5.703c0.397,7.566,4.693,14.383,11.347,18.006
		c6.654,3.623,14.711,3.533,21.282-0.238c8.445,12.37,22.543,19.666,37.519,19.416c14.976-0.25,28.823-8.011,36.851-20.656
		c4.353,2.696,9.371,4.127,14.492,4.132c6.742,0.169,13.274-2.349,18.157-7c4.883-4.651,7.717-11.053,7.877-17.794
		c0.021-2.044-0.271-4.079-0.868-6.034c16.368-8.261,26.749-24.973,26.902-43.307c-0.327-13.413-5.969-26.147-15.685-35.4
		c-9.716-9.253-22.71-14.268-36.123-13.94c-3.028-0.024-6.052,0.253-9.025,0.826c-2.072-19.849-19.012-34.796-38.964-34.381
		c-13.776-0.137-26.617,6.95-33.844,18.678c-2.977-1.432-6.242-2.167-9.546-2.149c-11.692-0.274-21.399,8.97-21.695,20.662
		c-0.003,1.448,0.172,2.892,0.521,4.297c-24.244,1.258-43.404,21.02-43.911,45.291C296.238,109.301,310.937,127.431,331.498,132.103
		z"/>
	<g>
		<circle style="fill:#46B29D;" cx="52.068" cy="227.065" r="26.034"/>
		<circle style="fill:#46B29D;" cx="95.458" cy="287.811" r="17.356"/>
	</g>
	<g>
		<circle style="fill:#CC4B4C;" cx="451.254" cy="227.065" r="26.034"/>
		<circle style="fill:#CC4B4C;" cx="407.864" cy="287.811" r="17.356"/>
	</g>
	<rect x="173.559" y="357.235" style="fill:#D1D4D1;" width="156.203" height="147.525"/>
	<path style="fill:#41767F;" d="M216.949,391.947h17.356c4.793,0,8.678,3.885,8.678,8.678v60.746c0,4.793-3.885,8.678-8.678,8.678
		h-17.356c-4.793,0-8.678-3.885-8.678-8.678v-60.746C208.271,395.832,212.156,391.947,216.949,391.947z"/>
	<g>
		<path style="fill:#46B29D;" d="M269.017,409.303c-2.302,0.001-4.51-0.913-6.138-2.54c-1.628-1.628-2.542-3.836-2.54-6.138v-8.678
			c0-4.793,3.885-8.678,8.678-8.678c4.793,0,8.678,3.885,8.678,8.678v8.678c0.001,2.302-0.913,4.51-2.54,6.138
			C273.527,408.39,271.319,409.304,269.017,409.303z"/>
		<path style="fill:#46B29D;" d="M295.051,409.303c-2.302,0.001-4.51-0.913-6.138-2.54c-1.628-1.628-2.542-3.836-2.54-6.138v-8.678
			c0-4.793,3.885-8.678,8.678-8.678c4.793,0,8.678,3.885,8.678,8.678v8.678c0.001,2.302-0.913,4.51-2.54,6.138
			C299.561,408.39,297.353,409.304,295.051,409.303z"/>
	</g>
	<g>
		<path style="fill:#CC4B4C;" d="M269.017,478.726c-2.302,0.001-4.51-0.913-6.138-2.54c-1.628-1.628-2.542-3.836-2.54-6.138v-43.39
			c0-4.793,3.885-8.678,8.678-8.678c4.793,0,8.678,3.885,8.678,8.678v43.39c0.001,2.302-0.913,4.51-2.54,6.138
			C273.527,477.814,271.319,478.728,269.017,478.726z"/>
		<path style="fill:#CC4B4C;" d="M295.051,478.726c-2.302,0.001-4.51-0.913-6.138-2.54c-1.628-1.628-2.542-3.836-2.54-6.138v-43.39
			c0-4.793,3.885-8.678,8.678-8.678c4.793,0,8.678,3.885,8.678,8.678v43.39c0.001,2.302-0.913,4.51-2.54,6.138
			C299.561,477.814,297.353,478.728,295.051,478.726z"/>
	</g>
	<g>
		<path style="fill:#E6E7E8;" d="M411.458,88.218l19.899-19.899c2.215-2.187,3.088-5.394,2.289-8.402
			c-0.799-3.009-3.149-5.358-6.158-6.158s-6.215,0.074-8.402,2.289l-19.899,19.898l-19.899-19.898
			c-3.397-3.336-8.848-3.312-12.215,0.055c-3.367,3.367-3.392,8.818-0.055,12.215l19.898,19.899l-19.899,19.899
			c-2.215,2.187-3.088,5.394-2.289,8.402c0.799,3.009,3.149,5.358,6.158,6.158s6.215-0.074,8.402-2.289l19.899-19.898l19.899,19.899
			c2.187,2.215,5.394,3.088,8.402,2.289s5.358-3.149,6.158-6.158c0.799-3.009-0.074-6.215-2.289-8.402L411.458,88.218z"/>
		<path style="fill:#E6E7E8;" d="M95.458,122.93c-2.301-0.001-4.508-0.915-6.135-2.543l-17.356-17.356
			c-3.336-3.397-3.312-8.848,0.055-12.215c3.367-3.367,8.818-3.392,12.215-0.055l9.873,9.873l28.839-43.263
			c1.706-2.613,4.683-4.109,7.798-3.919c3.115,0.191,5.887,2.039,7.261,4.841c1.374,2.802,1.138,6.125-0.618,8.705l-34.712,52.068
			c-1.442,2.163-3.778,3.565-6.364,3.822C96.025,122.913,95.737,122.93,95.458,122.93z"/>
	</g>
</g>
<g>
</g>
<g>
</g>
<g>
</g>
<g>
</g>
<g>
</g>
<g>
</g>
<g>
</g>
<g>
</g>
<g>
</g>
<g>
</g>
<g>
</g>
<g>
</g>
<g>
</g>
<g>
</g>
<g>
</g>
</svg>
