<?xml version="1.0" encoding="iso-8859-1"?>
<!-- Generator: Adobe Illustrator 19.0.0, SVG Export Plug-In . SVG Version: 6.00 Build 0)  -->
<svg version="1.1" id="Capa_1" xmlns="http://www.w3.org/2000/svg" xmlns:xlink="http://www.w3.org/1999/xlink" x="0px" y="0px"
	 viewBox="0 0 512 512" style="enable-background:new 0 0 512 512;" xml:space="preserve">
<path style="fill:#FEC93E;" d="M255.972,46.967c0,0-39.315,90.253-39.315,172.56s39.315,204.399,39.315,204.399
	s39.315-122.092,39.315-204.399S255.972,46.967,255.972,46.967z"/>
<path style="fill:#EFB533;" d="M255.972,46.967v376.959c0,0,39.315-122.092,39.315-204.399S255.972,46.967,255.972,46.967z"/>
<path style="fill:#E0A327;" d="M249.012,400.723c4.135,14.424,6.961,23.203,6.961,23.203s2.85-8.853,7.012-23.385
	c-1.239-67.145-3.901-188.204-6.985-188.204C252.913,212.337,250.249,333.616,249.012,400.723z"/>
<path style="fill:#A3D8A3;" d="M50.535,182.26c50.453-9.61,103.254,11.773,139.564,44.75
	c46.715,42.427,70.641,133.362,65.886,196.916c-15.466-45.072-46.886-99.157-135.482-150.666
	C82.437,251.129,81.887,213.296,50.535,182.26z"/>
<path style="fill:#87C489;" d="M50.535,182.26c105.537,16.05,210.205,178.112,205.45,241.666
	c-15.466-45.072-46.886-99.157-135.482-150.666C82.437,251.129,81.887,213.296,50.535,182.26z"/>
<path style="fill:#F75763;" d="M461.465,182.26c-50.453-9.61-103.254,11.773-139.564,44.75
	c-46.715,42.427-70.641,133.362-65.886,196.916c15.466-45.072,46.886-99.157,135.482-150.666
	C429.563,251.129,430.113,213.296,461.465,182.26z"/>
<path style="fill:#EF4A50;" d="M461.465,182.26c-118.586,35.624-210.205,178.112-205.45,241.666
	c15.466-45.072,46.886-99.157,135.482-150.666C429.563,251.129,430.113,213.296,461.465,182.26z"/>
<path style="fill:#A7AEEE;" d="M256.001,430.246c0,0-32.122-113.491-123.9-132.674l-56.228-8.694
	c-16.554-2.559-32.333-11.167-45.75-24.956L0,232.966c0,0,3.924,58.62,26.767,84.157c0,0-23.506-0.765-21.395,10.089
	c1.933,9.941,35.65,37.163,38.863,47.017c0,0-23.039,4.849-17.363,14.903c7.291,12.913,16.447,24.504,27.927,33.678
	c27.253,21.779,67.604,29.936,127.197,9.815C198.404,427.086,256.001,430.246,256.001,430.246z"/>
<path style="fill:#8C99E5;" d="M92.743,311.995c81.956,17.129,105.488,100.385,110.516,117.766
	c22.85-1.154,52.742,0.485,52.742,0.485s-1.537-5.431-4.9-14.117c-0.48-1.241-0.998-2.548-1.554-3.916
	c-6.112-15.042-16.834-37.356-33.283-58.501c-2.991-3.845-6.171-7.65-9.547-11.367c-5.908-6.504-12.417-12.734-19.562-18.419
	c-5.104-4.061-10.532-7.843-16.298-11.247c-2.307-1.362-4.667-2.663-7.083-3.898c-9.662-4.939-20.202-8.81-31.674-11.208
	l-56.228-8.694c-2.069-0.32-4.126-0.734-6.168-1.242c-14.293-3.551-27.842-11.649-39.582-23.714L0,232.966
	C10.301,298.238,92.743,311.995,92.743,311.995z"/>
<path style="fill:#A7AEEE;" d="M255.999,430.246c0,0,32.122-113.491,123.9-132.674l56.228-8.694
	c16.554-2.559,32.333-11.167,45.75-24.956L512,232.966c0,0-3.924,58.62-26.767,84.157c0,0,23.506-0.765,21.395,10.089
	c-1.933,9.941-35.65,37.163-38.863,47.017c0,0,23.039,4.849,17.363,14.903c-7.291,12.913-16.447,24.504-27.927,33.678
	c-27.253,21.779-67.604,29.936-127.197,9.815C313.596,427.086,255.999,430.246,255.999,430.246z"/>
<path style="fill:#8C99E5;" d="M485.233,317.123C508.076,291.586,512,232.966,512,232.966l-30.122,30.956
	c-7.655,7.867-16.081,14.04-24.979,18.373c-0.275,30.399-2.452,90.718-60.114,140.516c-9.72,8.394-21.453,14.655-35.363,18.224
	c42.791,8.188,73.616-0.513,95.779-18.224c11.48-9.174,20.636-20.765,27.927-33.678c5.677-10.054-17.363-14.903-17.363-14.903
	c3.214-9.854,36.93-37.076,38.864-47.017C508.739,316.358,485.233,317.123,485.233,317.123z"/>
<path style="fill:#E54551;" d="M255.972,431.653c-4.268,0-7.726-3.459-7.726-7.726c0-58.103,65.935-141.178,69.351-138.624
	c3.418,2.554-53.899,85.669-53.899,138.624C263.698,428.193,260.239,431.653,255.972,431.653z"/>
<path style="fill:#69B96D;" d="M256.028,431.653c-4.268,0-7.726-3.459-7.726-7.726c0-52.955-57.316-136.07-53.899-138.624
	c3.418-2.554,69.351,80.521,69.351,138.624C263.755,428.193,260.296,431.653,256.028,431.653z"/>
<path style="fill:#FEC93E;" d="M252.691,462.823l-25.364-61.142c-1.909-4.603,0.032-9.9,4.463-12.179l19.212-9.88
	c3.136-1.613,6.858-1.613,9.995,0l19.212,9.88c4.431,2.279,6.373,7.576,4.463,12.179l-25.364,61.142
	C258.087,465.769,253.913,465.769,252.691,462.823z"/>
<path style="fill:#EFB533;" d="M280.209,389.503l-19.212-9.88c-1.559-0.802-3.264-1.203-4.969-1.208v86.616
	c1.339-0.01,2.674-0.745,3.28-2.208l25.364-61.142C286.582,397.079,284.641,391.781,280.209,389.503z"/>
<path style="fill:#8C99E5;" d="M206.226,397.142c-1.907-9.276-5.816-18.012-11.223-25.786
	c-8.003-11.506-22.352-28.372-41.851-36.269c-31.287-12.669-65.985,6.846-67.448,7.683c-3.437,1.968-4.829,6.216-3.223,9.837
	c0.644,1.451,16.118,35.693,46.829,48.13c7.71,3.122,15.778,4.305,23.581,4.305c15.936,0,30.747-4.933,39.099-8.351
	c0,0,12.783,10.336,13.941,9.719C207.46,405.595,207.142,401.599,206.226,397.142z"/>
<path style="fill:#FFFFFF;" d="M195.403,386.674c0,0-35.025,18.31-63.193,6.902s-42.666-44.101-42.666-44.101
	s32.539-18.634,60.708-7.226C178.419,353.656,195.403,386.674,195.403,386.674z"/>
<path style="fill:#8C99E5;" d="M305.774,397.142c1.907-9.276,5.816-18.012,11.223-25.786c8.003-11.506,22.352-28.372,41.851-36.269
	c31.287-12.669,65.985,6.846,67.448,7.683c3.437,1.968,4.829,6.216,3.223,9.837c-0.644,1.451-16.118,35.693-46.829,48.13
	c-7.71,3.122-15.778,4.305-23.581,4.305c-15.936,0-30.747-4.933-39.099-8.351c0,0-12.783,10.336-13.941,9.719
	C304.54,405.595,304.858,401.599,305.774,397.142z"/>
<path style="fill:#FFFFFF;" d="M316.597,386.674c0,0,35.025,18.31,63.193,6.902s42.666-44.101,42.666-44.101
	s-32.539-18.634-60.708-7.226C333.581,353.656,316.597,386.674,316.597,386.674z"/>
<g>
</g>
<g>
</g>
<g>
</g>
<g>
</g>
<g>
</g>
<g>
</g>
<g>
</g>
<g>
</g>
<g>
</g>
<g>
</g>
<g>
</g>
<g>
</g>
<g>
</g>
<g>
</g>
<g>
</g>
</svg>
