<svg height="512pt" viewBox="0 0 512.00206 512" width="512pt" xmlns="http://www.w3.org/2000/svg"><path d="m314.929688 197.070312c48.421874 48.417969 57.496093 94.386719 29.007812 122.875-27.058594 27.058594-40.414062 19.527344-62.03125 41.144532-24.980469 24.980468 12.652344 60.023437-38.648438 111.324218-41.414062 41.414063-97.378906 52.59375-176.820312-26.851562-79.445312-79.441406-68.265625-135.40625-26.851562-176.820312 51.296874-51.300782 86.34375-13.667969 111.324218-38.648438 21.617188-21.617188 14.085938-34.972656 41.144532-62.03125 28.492187-28.488281 74.457031-19.414062 122.875 29.007812zm0 0" fill="#9cdae3"/><path d="m245.742188 469.871094c-126.847657-40.421875-94.5625-203.09375-59.585938-295.507813-20.113281 22.964844-15.378906 35.863281-35.246094 55.734375-24.980468 24.976563-60.023437-12.65625-111.324218 38.644532-41.414063 41.414062-52.59375 97.378906 26.851562 176.824218 79.441406 79.441406 135.40625 68.261719 176.820312 26.851563.855469-.855469 1.679688-1.703125 2.484376-2.546875zm0 0" fill="#75b1d9"/><path d="m287.929688 281.214844c0 31.558594-25.582032 57.144531-57.144532 57.144531-31.558594 0-57.140625-25.585937-57.140625-57.144531 0-31.5625 25.582031-57.144532 57.140625-57.144532 31.5625 0 57.144532 25.582032 57.144532 57.144532zm0 0" fill="#eeeeed"/><path d="m401.671875 77.832031 32.492187 32.492188-184.0625 184.0625-32.492187-32.492188zm0 0" fill="#d6a17a"/><path d="m401.671875 77.832031 32.492187 32.492188-29.96875 29.964843-32.492187-32.492187zm0 0" fill="#bd8860"/><path d="m261.308594 281.214844c0 16.855468-13.664063 30.519531-30.523438 30.519531-16.855468 0-30.519531-13.664063-30.519531-30.519531 0-16.855469 13.664063-30.523438 30.519531-30.523438 16.859375 0 30.523438 13.667969 30.523438 30.523438zm0 0" fill="#495059"/><path d="m207.070312 390.667969-85.738281-85.738281c-3.335937-3.335938-8.742187-3.335938-12.078125 0l-9.101562 9.101562c-3.335938 3.335938-3.335938 8.742188 0 12.078125l85.738281 85.738281c3.335937 3.335938 8.742187 3.335938 12.078125 0l9.101562-9.101562c3.335938-3.335938 3.335938-8.746094 0-12.078125zm0 0" fill="#eeeeed"/><path d="m500.335938 58.847656-47.179688-47.183594c-5.96875-5.96875-15.789062-5.449218-21.097656 1.109376l-48.183594 59.550781c-3.085938 3.816406-2.796875 9.351562.675781 12.824219l42.300781 42.300781c3.476563 3.472656 9.007813 3.765625 12.824219.675781l59.550781-48.179688c6.5625-5.308593 7.078126-15.132812 1.109376-21.097656zm0 0" fill="#9cdae3"/><path d="m73.148438 386.222656c6.769531-6.765625 5.367187-19.140625-3.132813-27.640625-8.496094-8.496093-20.871094-9.898437-27.640625-3.132812-6.765625 6.769531-5.363281 19.144531 3.132812 27.640625 8.5 8.5 20.875 9.902344 27.640626 3.132812zm0 0" fill="#fff"/><path d="m125.773438 438.859375c-6.769532 6.765625-5.367188 19.140625 3.132812 27.640625 8.496094 8.496094 20.871094 9.898438 27.640625 3.132812 6.765625-6.769531 5.363281-19.144531-3.132813-27.640624-8.5-8.5-20.875-9.902344-27.640624-3.132813zm0 0" fill="#fff"/><path d="m421.769531 25.492188-37.894531 46.832031c-3.085938 3.816406-2.796875 9.351562.675781 12.824219l42.300781 42.300781c3.476563 3.472656 9.007813 3.765625 12.824219.675781l2.011719-1.628906c-20.121094-24.753906-24.601562-69.609375-19.917969-101.003906zm0 0" fill="#75b1d9"/><path d="m127.554688 408.671875c-.285157-4.128906-3.867188-7.238281-7.996094-6.964844-2.507813.167969-4.96875-.746093-6.746094-2.519531-1.773438-1.773438-2.691406-4.230469-2.519531-6.746094.285156-4.128906-2.835938-7.710937-6.964844-7.996094-4.136719-.28125-7.714844 2.835938-8 6.96875-.46875 6.839844 2.039063 13.539063 6.878906 18.378907 4.457031 4.453125 10.484375 6.933593 16.75 6.933593.542969 0 1.085938-.019531 1.628907-.058593 4.132812-.28125 7.253906-3.863281 6.96875-7.996094zm53.03125 8.480469c3.125 3.125 7.234374 4.691406 11.34375 4.691406 4.105468 0 8.214843-1.566406 11.34375-4.691406l9.101562-9.101563c6.253906-6.257812 6.253906-16.433593 0-22.6875l-85.738281-85.734375c-6.253907-6.257812-16.429688-6.257812-22.6875 0l-9.101563 9.101563c-6.253906 6.253906-6.253906 16.429687 0 22.683593zm-75.128907-97.816406 9.101563-9.105469c.203125-.203125.46875-.304688.734375-.304688.269531 0 .535156.101563.738281.304688l85.738281 85.738281c.40625.40625.40625 1.066406 0 1.472656l-9.105469 9.101563c-.402343.40625-1.066406.40625-1.472656 0l-85.734375-85.734375c-.40625-.40625-.40625-1.066406 0-1.472656zm-26.375 37.511718-5.433593 5.433594c-2.929688 2.929688-2.929688 7.675781 0 10.605469 1.460937 1.464843 3.382812 2.199219 5.300781 2.199219 1.921875 0 3.839843-.734376 5.304687-2.199219l5.433594-5.433594c2.929688-2.929687 2.929688-7.675781 0-10.605469-2.929688-2.929687-7.679688-2.929687-10.605469 0zm426.558594-303.304687-47.183594-47.183594c-4.34375-4.34375-10.363281-6.652344-16.492187-6.328125-6.136719.324219-11.875 3.25-15.738282 8.023438l-7.394531 9.140624-6.167969-6.167968c-2.925781-2.933594-7.675781-2.929688-10.605468 0-2.929688 2.925781-2.929688 7.675781 0 10.605468l7.289062 7.285157-12.402344 15.332031-5.226562-5.226562c-2.929688-2.929688-7.675781-2.929688-10.605469 0-2.929687 2.929687-2.929687 7.679687 0 10.609374l6.34375 6.34375-9.410156 11.628907c-5.398437 6.675781-5.007813 16.210937.820313 22.429687l-37.992188 37.988282c-2.925781 2.929687-2.925781 7.679687 0 10.609374 1.464844 1.460938 3.386719 2.195313 5.304688 2.195313 1.921874 0 3.839843-.730469 5.304687-2.195313l37.972656-37.972656 21.886719 21.886719-86.246094 86.242187c-.007812.007813-.011718.011719-.015625.015626l-46.269531 46.269531c-.007812.007812-.015625.015625-.023438.023437l-12.511718 12.511719c-1.847656-4.84375-4.707032-9.386719-8.605469-13.28125-3.894531-3.894531-8.4375-6.757813-13.277344-8.605469l12.5-12.503906c.011719-.011719.027344-.023438.039063-.035156l46.269531-46.269532v-.003906l23.796875-23.792968c2.929688-2.929688 2.929688-7.679688 0-10.605469-2.929688-2.929688-7.679688-2.929688-10.609375 0l-19.042969 19.042969c-19.996094-15.375-39.410156-24.316407-57.78125-26.554688-20.4375-2.492188-38.707031 3.652344-52.816406 17.761719-15.269531 15.273437-20.367188 26.761719-24.867188 36.894531-3.789062 8.542969-7.0625 15.917969-16.277343 25.136719-7.617188 7.617187-16.242188 7.773437-30.832031 7.398437-20.257813-.527344-47.996094-1.246094-80.492188 31.25-24.53125 24.527344-35.996094 51.429688-34.074219 79.953125 2.230469 33.113281 22.726563 69.273438 60.925781 107.472657 11.671876 11.671874 23.25 21.796874 34.40625 30.09375 1.34375 1 2.914063 1.480468 4.46875 1.480468 2.292969 0 4.554688-1.042968 6.023438-3.023437 2.472656-3.324219 1.78125-8.023438-1.542969-10.492188-10.574219-7.863281-21.589843-17.507812-32.75-28.664062-35.554687-35.558594-54.585937-68.488281-56.566406-97.875-1.636719-24.351563 8.082031-46.707031 29.71875-68.339844 27.933594-27.9375 50.015625-27.367187 69.492187-26.863281 14.398438.375 29.285157.761718 41.828126-11.785156 11.191406-11.191407 15.355468-20.578126 19.386718-29.65625 4.347656-9.808594 8.460938-19.074219 21.761719-32.375 21.296875-21.296876 53.5625-17.960938 89.285156 8.886718l-37.097656 37.101563c-22.695313-6.875-47.527344-.792969-64.46875 16.148437-12.210937 12.207032-18.933594 28.441406-18.933594 45.710938 0 17.265625 6.722657 33.5 18.933594 45.710937 12.601563 12.601563 29.15625 18.902344 45.707031 18.902344 16.554688 0 33.109375-6.300781 45.710938-18.902344 16.941406-16.945312 23.023437-41.777343 16.148437-64.472656l37.101563-37.097656c26.847656 35.722656 30.183594 67.988281 8.886718 89.289062-13.300781 13.296875-22.5625 17.410157-32.371093 21.761719-9.082031 4.027344-18.46875 8.191406-29.660157 19.382812-12.542968 12.542969-12.15625 27.429688-11.785156 41.828126.503906 19.480468 1.078125 41.558593-26.859375 69.496093-31.714843 31.710938-66.011719 38.0625-104.855469 19.417969-3.734374-1.792969-8.214843-.21875-10.007812 3.515625s-.21875 8.214844 3.515625 10.007813c16.558594 7.949218 32.617187 11.914062 48.117187 11.914062 26.3125 0 51.019532-11.433594 73.835938-34.25 32.492188-32.492188 31.773438-60.234375 31.25-80.488281-.378906-14.589844-.222656-23.21875 7.398438-30.835938 9.214843-9.214843 16.59375-12.488281 25.132812-16.277343 10.136719-4.496094 21.621094-9.59375 36.898438-24.867188 14.109374-14.109375 20.25-32.371094 17.757812-52.816406-2.238281-18.367188-11.175781-37.78125-26.554688-57.777344l81.523438-81.523438c3.273438 3.066407 7.457031 4.640626 11.671875 4.640626 3.789063 0 7.59375-1.261719 10.753906-3.816407l11.632813-9.410156 6.34375 6.34375c1.464844 1.464844 3.386718 2.195313 5.304687 2.195313s3.839844-.730469 5.304688-2.195313c2.929687-2.929687 2.929687-7.679687-.003907-10.605469l-5.222656-5.226562 15.328125-12.402344 7.289063 7.285156c1.464844 1.464844 3.382812 2.199219 5.304687 2.199219 1.917969 0 3.835938-.734375 5.300781-2.199219 2.929688-2.925781 2.929688-7.675781.003907-10.605468l-6.167969-6.167969 9.136719-7.390625c4.777343-3.867188 7.703125-9.601563 8.023437-15.738282.320313-6.140624-1.988281-12.148437-6.332031-16.496093zm-258.574219 211.390625c8.976563 8.976562 8.976563 23.582031 0 32.558594-8.976562 8.976562-23.582031 8.976562-32.558594 0-8.976562-8.976563-8.976562-23.582032 0-32.558594 4.488282-4.488282 10.382813-6.730469 16.277344-6.730469 5.898438 0 11.792969 2.242187 16.28125 6.730469zm18.824219 51.382812c-19.355469 19.355469-50.851563 19.355469-70.207031 0-9.375-9.375-14.539063-21.84375-14.539063-35.101562 0-13.261719 5.164063-25.726563 14.539063-35.105469 10.976562-10.980469 26.273437-16.015625 41.257812-14.148437l-11.644531 11.644531c-7.832031 1.132812-15.378906 4.707031-21.394531 10.722656-14.824219 14.824219-14.824219 38.945313 0 53.769531 7.410156 7.414063 17.148437 11.121094 26.882812 11.121094 9.738282 0 19.476563-3.707031 26.886719-11.121094 6.015625-6.015625 9.589844-13.558594 10.722656-21.394531l11.644531-11.644531c1.867188 14.984375-3.171874 30.28125-14.148437 41.257812zm231.101563-247.070312c-.105469 1.925781-.984376 3.652344-2.484376 4.867187l-42.667968 34.523438c-.011719.007812-.023438.015625-.035156.027343l-16.84375 13.628907c-.839844.679687-2.042969.613281-2.804688-.144531l-42.300781-42.300782c-.761719-.761718-.828125-1.96875-.148438-2.804687l13.636719-16.859375c.003906-.003906.007812-.007813.011719-.011719l21.878906-27.039063c.003906-.007812.011719-.015624.015625-.019531l12.636719-15.621093c1.214843-1.5 2.941406-2.378907 4.867187-2.480469.121094-.007813.246094-.011719.367188-.011719 1.785156 0 3.453125.691406 4.726562 1.964844l47.1875 47.183594c1.363282 1.363281 2.054688 3.175781 1.957032 5.097656zm-352.445313 353.066406-5.433594 5.433594c-2.929687 2.929687-2.929687 7.679687 0 10.605468 1.464844 1.464844 3.382813 2.199219 5.304688 2.199219 1.917969 0 3.835937-.734375 5.300781-2.199219l5.433594-5.433593c2.929687-2.929688 2.929687-7.675781 0-10.605469-2.925782-2.925781-7.675782-2.925781-10.605469 0zm0 0"/></svg>