<svg viewBox="0 0 512 512.004" xmlns="http://www.w3.org/2000/svg"><path d="m.00390625 490.785156 94.99999975-95 21.210938 21.210938-95 95zm0 0" fill="#6e6e6e"/><path d="m21.214844 512.003906-10.605469-10.605468 95-95 10.605469 10.605468zm0 0" fill="#5a5a5a"/><path d="m340.441406 280.597656-143.1875 111.371094-48.578125-6.152344-26.730469-26.730468-1.90625-44.335938 111.367188-143.1875zm0 0" fill="#ff7816"/><path d="m285.925781 226.082031 54.515625 54.515625-143.1875 111.371094-48.578125-6.152344-11.242187-11.242187zm0 0" fill="#ff4b00"/><path d="m476.84375 204.867188c-26.304688 26.304687-63.640625 39.03125-101.398438 34.367187l-52.820312-49.855469-48.578125-45.605468c-7.636719-39.882813 5.089844-80.609376 33.089844-108.613282 46.882812-46.878906 122.824219-46.878906 169.707031 0 46.882812 46.882813 46.882812 122.824219 0 169.707032zm0 0" fill="#444"/><path d="m254.105469 109.40625-63.640625 63.640625 148.492187 148.492187 63.640625-63.640624zm0 0" fill="#6e6e6e"/><path d="m120.039062 314.75-55.578124 71.703125 61.09375 61.09375 71.699218-55.578125zm0 0" fill="#444"/><path d="m190.460938 300.328125 42.425781-42.425781 21.214843 21.210937-42.425781 42.425781zm0 0" fill="#444"/><g fill="#292929"><path d="m476.84375 204.867188c-26.304688 26.304687-63.640625 39.03125-101.398438 34.367187l-52.820312-49.855469 154.21875-154.21875c46.882812 46.882813 46.882812 122.824219 0 169.707032zm0 0"/><path d="m243.5 268.503906 10.605469 10.605469-42.425781 42.425781-10.605469-10.605468zm0 0"/><path d="m158.644531 353.359375 38.609375 38.609375-71.699218 55.578125-30.546876-30.546875zm0 0"/></g><path d="m264.707031 247.292969 63.640625-63.636719 74.246094 74.246094-63.640625 63.636718zm0 0" fill="#5a5a5a"/></svg>