<?xml version="1.0" encoding="iso-8859-1"?>
<!-- Generator: Adobe Illustrator 19.0.0, SVG Export Plug-In . SVG Version: 6.00 Build 0)  -->
<svg version="1.1" id="Capa_1" xmlns="http://www.w3.org/2000/svg" xmlns:xlink="http://www.w3.org/1999/xlink" x="0px" y="0px"
	 viewBox="0 0 512.007 512.007" style="enable-background:new 0 0 512.007 512.007;" xml:space="preserve">
<g>
	
		<rect x="399.399" y="36.794" transform="matrix(-0.7071 0.7071 -0.7071 -0.7071 731.0475 -204.9704)" style="fill:#5B5B5B;" width="17.15" height="24.25"/>
	
		<rect x="419.356" y="18.507" transform="matrix(-0.7071 0.7071 -0.7071 -0.7071 755.0007 -243.4998)" style="fill:#5B5B5B;" width="17.15" height="32.217"/>
	
		<rect x="438.001" y="0.735" transform="matrix(-0.7071 0.7071 -0.7071 -0.7071 775.7373 -283.4663)" style="fill:#5B5B5B;" width="17.15" height="36.384"/>
</g>
<path style="fill:#FF8030;" d="M202.169,280.478l-5.934-5.934c-6.697-6.697-8.361-16.927-4.125-25.4l0,0
	c0.986-1.964,2.255-3.773,3.773-5.368l29.825-31.188l0,0c-19.783-5.72-41.11-0.12-55.533,14.578l0,0
	c-10.882,11.096-20.298,23.539-28.032,37.019l-6.989,12.151c-5.291,9.218-12.657,17.073-21.507,22.956l-75.359,51.108
	c-7.323,4.708-13.463,11.045-17.914,18.531c-14.689,26.257-3.164,56.991,20.46,82.082l35.338,37.551
	c28.281,29.756,75.179,31.402,105.475,3.696l1.166-1.072c10.179-9.398,17.536-21.438,21.267-34.781l2.47-8.867
	c5.317-19.028,19.251-34.464,37.637-41.701l32.869-12.931c2.195-0.866,4.185-2.17,5.848-3.833l0,0
	c6.697-6.217,7.083-16.696,0.866-23.393c-0.137-0.146-0.274-0.292-0.42-0.429l-0.369-0.369c-5.051-5.094-11.851-8.078-19.02-8.352
	l-3.97-0.154c-12.991-0.515-23.102-11.456-22.596-24.448c0.06-1.586,0.283-3.164,0.669-4.708l0,0
	c1.295-4.648,3.687-8.918,6.98-12.443l-17.15-17.15L202.169,280.478z"/>
<g>
	<polygon style="fill:#FFDB6F;" points="279.345,203.302 107.841,374.806 133.567,400.531 425.124,108.974 450.85,100.399 
		502.301,40.373 476.575,14.647 399.398,66.098 399.398,83.249 305.071,177.576 	"/>
	<path style="fill:#FFDB6F;" d="M159.232,434.849L159.232,434.849c4.751-0.009,8.61,3.825,8.618,8.575v0.009
		c0.009,4.742-3.825,8.601-8.575,8.609h-0.009c-4.742,0.009-8.601-3.825-8.61-8.575v-0.009
		C150.649,438.717,154.49,434.866,159.232,434.849z"/>
</g>
<circle cx="159.25" cy="443.45" r="0.043"/>
<path style="fill:#FFDB6F;" d="M133.507,460.583L133.507,460.583c4.751-0.009,8.61,3.825,8.618,8.575v0.009
	c0.009,4.742-3.825,8.601-8.575,8.61h-0.009c-4.742,0.009-8.601-3.825-8.61-8.575v-0.009
	C124.923,464.451,128.765,460.592,133.507,460.583z"/>
<circle cx="133.524" cy="469.176" r="0.043"/>
<path style="fill:#5B5B5B;" d="M204.681,368.743l-15.984,15.976l-41.161,17.648l-42.199-42.199c-3.353-3.344-8.772-3.344-12.125,0
	l-25.726,25.726c-3.344,3.344-3.344,8.781,0,12.125l42.876,42.876c3.353,3.344,8.772,3.344,12.125,0l15.984-15.984l58.509-25.074
	c1.003-0.429,1.912-1.046,2.684-1.818l17.15-17.15L204.681,368.743z M116.416,422.707l-30.751-30.751l13.6-13.6l30.751,30.751
	L116.416,422.707z"/>
<path style="fill:#62BEFF;" d="M386.081,356.798l-7.666-15.35l12.408-6.243v-46.152c0-3.687,2.367-6.963,5.865-8.129l51.451-17.15
	c4.493-1.501,9.347,0.935,10.848,5.428c0.292,0.875,0.437,1.784,0.437,2.701v51.451c0.017,3.267-1.818,6.26-4.742,7.718
	l-17.15,8.575l-7.666-15.35l12.408-6.243v-34.249l-34.301,11.431v45.269c0.017,3.267-1.818,6.26-4.742,7.718L386.081,356.798z"/>
<path style="fill:#4EBE80;" d="M17.347,108.117l-7.666-15.35l12.408-6.243V40.373c0-3.687,2.367-6.963,5.865-8.129l51.451-17.15
	c4.493-1.501,9.347,0.935,10.848,5.428c0.292,0.875,0.437,1.784,0.437,2.701v51.451c0,3.25-1.835,6.226-4.742,7.675l-17.15,8.575
	l-7.666-15.35l12.408-6.2V35.125L39.24,46.555v45.269c0,3.25-1.835,6.226-4.742,7.675L17.347,108.117z"/>
<path style="fill:#00448F;" d="M188.851,142.418l-7.666-15.35l12.408-6.243V74.673c0-3.687,2.367-6.963,5.865-8.129l25.726-8.575
	l5.42,16.293l-19.86,6.594v45.269c0,3.25-1.835,6.226-4.742,7.675L188.851,142.418z"/>
<path style="fill:#FFDB6F;" d="M334.63,502.576l-7.666-15.35l12.408-6.243v-46.152c0-3.687,2.367-6.963,5.865-8.129l25.726-8.575
	l5.42,16.293l-19.86,6.594v45.269c0.017,3.267-1.818,6.26-4.742,7.718L334.63,502.576z"/>
<rect x="485.176" y="417.682" style="fill:#03AA6F;" width="17.15" height="17.15"/>
<g>
</g>
<g>
</g>
<g>
</g>
<g>
</g>
<g>
</g>
<g>
</g>
<g>
</g>
<g>
</g>
<g>
</g>
<g>
</g>
<g>
</g>
<g>
</g>
<g>
</g>
<g>
</g>
<g>
</g>
</svg>
