<svg height="512pt" viewBox="-43 0 512 512" width="512pt" xmlns="http://www.w3.org/2000/svg"><path d="m408.214844 43.785156c-14.128906-14.128906-37.039063-14.128906-51.167969 0l-12.011719 12.011719c-.511718.511719-1.339844.511719-1.847656 0l-12.011719-12.011719c-14.128906-14.128906-37.035156-14.128906-51.167969 0-14.128906 14.128906-14.128906 37.039063 0 51.167969l61.140626 61.140625c1.636718 1.636719 4.289062 1.636719 5.925781 0l48.203125-48.207031 12.9375-12.933594c14.128906-14.128906 14.128906-37.039063 0-51.167969zm0 0" fill="#f46262"/><path d="m269.425781 69.921875c.136719 9.074219 3.660157 18.109375 10.582031 25.03125l61.140626 61.140625c1.636718 1.636719 4.289062 1.636719 5.925781 0l28.238281-28.238281c-30.082031-28.570313-66.433594-48.3125-105.886719-57.933594zm0 0" fill="#d65b5b"/><path d="m238.15625 151.5h-50v-139.25c0-2.621094 2.125-4.75 4.75-4.75h40.5c2.621094 0 4.75 2.128906 4.75 4.75zm0 0" fill="#57565c"/><path d="m213.15625 63.1875v-50.9375c0-2.621094 2.125-4.75 4.75-4.75h-25c-2.625 0-4.75 2.128906-4.75 4.75v139.25h50v-86.996094c-8.25-.863281-16.589844-1.316406-25-1.316406zm0 0" fill="#444346"/><path d="m418.8125 298.84375c0 113.582031-92.074219 205.65625-205.65625 205.65625s-205.65625-92.074219-205.65625-205.65625 92.074219-205.65625 205.65625-205.65625 205.65625 92.074219 205.65625 205.65625zm0 0" fill="#d7f3ff"/><path d="m87.84375 298.84375c0-99.832031 71.136719-183.039062 165.484375-201.722656-12.992187-2.570313-26.421875-3.933594-40.171875-3.933594-113.582031 0-205.65625 92.074219-205.65625 205.65625s92.074219 205.65625 205.65625 205.65625c13.75 0 27.179688-1.359375 40.171875-3.933594-94.347656-18.683594-165.484375-101.890625-165.484375-201.722656zm0 0" fill="#bdebff"/><path d="m350.074219 257.714844h64.621093c-6.171874-30.394532-19.042968-58.351563-37.003906-82.265625h-52.757812c12.207031 23.914062 20.949218 51.871093 25.140625 82.265625zm0 0" fill="#bdebff"/><path d="m48.621094 175.449219c-17.960938 23.917969-30.835938 51.871093-37.003906 82.265625h64.621093c4.191407-30.394532 12.933594-58.351563 25.140625-82.265625zm0 0" fill="#92d8ff"/><path d="m11.617188 339.976562c6.167968 30.390626 19.042968 58.347657 37.003906 82.261719h52.757812c-12.207031-23.917969-20.949218-51.871093-25.140625-82.261719zm0 0" fill="#92d8ff"/><g fill="#bdebff"><path d="m377.691406 422.238281c17.960938-23.914062 30.832032-51.871093 37.003906-82.261719h-64.621093c-4.191407 30.390626-12.933594 58.347657-25.140625 82.261719zm0 0"/><path d="m101.378906 175.449219h73.394532c8.753906-49.949219 22.6875-82.261719 38.382812-82.261719-45.710938 0-86.289062 32.3125-111.777344 82.261719zm0 0"/><path d="m251.539062 175.449219h73.394532c-25.488282-49.949219-66.070313-82.261719-111.777344-82.261719 15.695312 0 29.628906 32.3125 38.382812 82.261719zm0 0"/><path d="m165.179688 298.84375c0-14.085938.332031-27.839844.960937-41.128906h-89.902344c-1.832031 13.289062-2.796875 27.042968-2.796875 41.128906s.964844 27.839844 2.796875 41.132812h89.902344c-.628906-13.292968-.960937-27.046874-.960937-41.132812zm0 0"/><path d="m261.132812 298.84375c0 14.085938-.332031 27.839844-.960937 41.132812h89.902344c1.832031-13.292968 2.796875-27.046874 2.796875-41.132812s-.964844-27.839844-2.796875-41.128906h-89.902344c.628906 13.289062.960937 27.042968.960937 41.128906zm0 0"/><path d="m324.933594 422.238281h-73.394532c-8.753906 49.949219-22.6875 82.261719-38.382812 82.261719 45.707031 0 86.289062-32.3125 111.777344-82.261719zm0 0"/><path d="m174.773438 422.238281h-73.394532c25.488282 49.949219 66.066406 82.261719 111.777344 82.261719-15.695312 0-29.628906-32.3125-38.382812-82.261719zm0 0"/><path d="m260.171875 257.714844c-1.441406-30.394532-4.445313-58.351563-8.632813-82.265625h-76.765624c-4.1875 23.917969-7.191407 51.871093-8.632813 82.265625zm0 0"/><path d="m166.140625 339.976562c1.4375 30.390626 4.441406 58.347657 8.632813 82.261719h76.761718c4.191406-23.917969 7.195313-51.871093 8.632813-82.261719zm0 0"/></g><path d="m228.351562 103.730469c5.660157-1.890625 11.433594-3.535157 17.304688-4.933594-10.429688-3.660156-21.308594-5.609375-32.5-5.609375 5.3125 0 10.417969 3.710938 15.195312 10.542969zm0 0" fill="#92d8ff"/><path d="m228.351562 493.957031c-4.777343 6.832031-9.882812 10.542969-15.195312 10.542969 11.191406 0 22.070312-1.949219 32.5-5.605469-5.871094-1.402343-11.644531-3.046875-17.304688-4.9375zm0 0" fill="#92d8ff"/><path d="m188.710938 475.820312c-23.257813-13.800781-43.566407-32.046874-59.742188-53.582031h-27.589844c25.488282 49.949219 66.066406 82.261719 111.777344 82.261719-8.929688 0-17.285156-10.46875-24.445312-28.679688zm0 0" fill="#92d8ff"/><path d="m87.84375 298.84375c0-14.085938 1.421875-27.839844 4.117188-41.128906h-15.722657c-1.835937 13.289062-2.796875 27.042968-2.796875 41.128906s.964844 27.839844 2.796875 41.132812h15.722657c-2.695313-13.292968-4.117188-27.046874-4.117188-41.132812zm0 0" fill="#92d8ff"/><path d="m188.710938 121.867188c7.160156-18.210938 15.515624-28.679688 24.445312-28.679688-45.710938 0-86.289062 32.3125-111.777344 82.261719h27.589844c16.171875-21.535157 36.484375-39.78125 59.742188-53.582031zm0 0" fill="#92d8ff"/><path d="m422.117188 340.992188c2.746093-13.628907 4.195312-27.722657 4.195312-42.148438 0-14.429688-1.449219-28.527344-4.195312-42.15625-.039063-.285156-.09375-.558594-.160157-.832031-6.359375-30.917969-19.4375-59.414063-37.628906-83.894531-.378906-.71875-.875-1.367188-1.457031-1.925782-5.609375-7.371094-11.683594-14.367187-18.183594-20.945312l48.832031-48.832032c8.25-8.25 12.792969-19.21875 12.792969-30.886718 0-11.667969-4.542969-22.636719-12.792969-30.886719-8.253906-8.25-19.222656-12.796875-30.890625-12.796875-11.667968 0-22.636718 4.546875-30.886718 12.796875l-7.632813 7.628906-7.628906-7.628906c-8.25-8.25-19.21875-12.796875-30.886719-12.796875s-22.640625 4.546875-30.890625 12.796875-12.792969 19.21875-12.792969 30.886719c0 8.554687 2.449219 16.726562 7.003906 23.734375-7.597656-2.0625-15.355468-3.726563-23.261718-4.941407v-75.914062c.003906-6.753906-5.492188-12.25-12.246094-12.25h-40.5c-6.753906 0-12.25 5.496094-12.25 12.25v75.914062c-88.054688 13.527344-158.523438 81.136719-176.308594 167.730469-.0625.246094-.109375.5-.144531.753907-2.753906 13.644531-4.203125 27.753906-4.203125 42.195312 0 14.402344 1.445312 28.476562 4.179688 42.085938.042968.335937.109374.660156.191406.980468 19.976562 96.960938 106 170.089844 208.785156 170.089844 69.167969 0 130.738281-33.125 169.703125-84.335938.59375-.5625 1.09375-1.21875 1.476563-1.949218 18.183593-24.472656 31.257812-52.957032 37.617187-83.867188.070313-.277344.125-.5625.164063-.855468zm-48.332032 73.746093h-36.933594c9.222657-20.613281 15.871094-43.316406 19.695313-67.25h48.714844c-6.21875 24.554688-17.039063 47.292969-31.476563 67.25zm-352.734375-67.25h48.714844c3.824219 23.933594 10.46875 46.636719 19.695313 67.25h-36.933594c-14.4375-19.957031-25.257813-42.695312-31.476563-67.25zm31.476563-164.539062h36.949218c-2.453124 5.503906-4.75 11.199219-6.871093 17.085937-1.40625 3.898438.613281 8.195313 4.511719 9.601563 3.894531 1.402343 8.195312-.617188 9.597656-4.511719 2.796875-7.757812 5.90625-15.152344 9.289062-22.175781h59.914063c-3.234375 20.546875-5.5625 43.265625-6.902344 67.253906h-74.035156c1.023437-6.03125 2.230469-12 3.632812-17.878906.964844-4.027344-1.519531-8.074219-5.550781-9.039063-4.027344-.957031-8.074219 1.523438-9.039062 5.554688-1.675782 7.019531-3.09375 14.148437-4.253907 21.363281h-48.722656c6.222656-24.554687 17.039063-47.292969 31.480469-67.253906zm309.261718-15h-32.304687c-3.5-6.511719-7.277344-12.773438-11.332031-18.738281-8.902344-13.109376-18.777344-24.320313-29.394532-33.523438 28.203126 11.6875 53.136719 29.699219 73.03125 52.261719zm-16.417968 130.894531c0 11.46875-.660156 22.707031-1.914063 33.644531h-75.460937c.246094-6.433593.421875-12.945312.523437-19.511719.066407-4.140624-3.238281-7.550781-7.378906-7.617187-.042969 0-.082031 0-.121094 0-4.089843 0-7.433593 3.28125-7.496093 7.378906-.105469 6.652344-.285157 13.242188-.539063 19.75h-79.660156c-.425781-11.011719-.644531-22.253906-.644531-33.644531s.21875-22.628906.644531-33.640625h79.660156c.253906 6.507813.433594 13.097656.539063 19.753906.0625 4.101563 3.40625 7.382813 7.496093 7.382813h.117188c4.144531-.066406 7.449219-3.476563 7.382812-7.617188-.101562-6.570312-.277343-13.082031-.523437-19.519531h75.460937c1.253907 10.9375 1.914063 22.175781 1.914063 33.640625zm-93.101563 48.644531c-1.375 24.136719-3.765625 46.898438-7.066406 67.25h-64.097656c-3.3125-20.410156-5.699219-43.148437-7.070313-67.25zm-171.332031-48.644531c0-11.351562.640625-22.589844 1.910156-33.640625h75.464844c-.417969 11.023437-.632812 22.261719-.632812 33.640625s.214843 22.621094.632812 33.644531h-75.457031c-1.253907-10.9375-1.917969-22.175781-1.917969-33.644531zm93.097656-48.640625c1.371094-24.101563 3.757813-46.839844 7.070313-67.253906h64.097656c3.296875 20.351562 5.6875 43.117187 7.0625 67.253906zm93.253906 0c-1.34375-24.015625-3.683593-46.753906-6.902343-67.253906h59.945312c9.636719 19.960937 16.855469 42.699219 21.003907 67.253906zm-14.027343-103.140625c-4.601563-18.511719-9.902344-32.859375-15.859375-43.023438 29.605468 8.261719 55.769531 31.347657 74.925781 63.914063h-54.53125c-1.390625-7.339844-2.902344-14.324219-4.535156-20.890625zm83.589843 35.886719h36.933594c14.441406 19.960937 25.257813 42.699219 31.476563 67.253906h-48.714844c-3.824219-23.933594-10.46875-46.640625-19.695313-67.253906zm-98.148437-32.269531c1.359375 5.46875 2.632813 11.234374 3.820313 17.269531h-58.730469c.867187-4.410157 1.78125-8.695313 2.742187-12.820313 10.027344-42.976562 21.453125-54.441406 26.621094-54.441406 4.875 0 15.742188 10.53125 25.546875 49.992188zm-49.832031-46.613282c-6.4375 10.996094-12.101563 26.894532-16.941406 47.652344-1.210938 5.191406-2.351563 10.617188-3.414063 16.230469h-54.515625c19.511719-33.203125 45.855469-55.742188 74.871094-63.882813zm-121.109375 161.136719c-1.207031 11.066406-1.820313 22.304687-1.820313 33.640625 0 11.375.617188 22.617188 1.816406 33.644531h-49.886718c-1.878906-10.9375-2.871094-22.175781-2.871094-33.644531 0-11.464844.992188-22.703125 2.871094-33.640625zm17.214843 82.285156h74.039063c1.339844 23.988281 3.667969 46.707031 6.902344 67.25h-59.941407c-9.632812-19.957031-16.851562-42.695312-21-67.25zm83.539063 82.25c1.0625 5.617188 2.203125 11.039063 3.414063 16.230469 4.84375 20.765625 10.507812 36.675781 16.953124 47.671875-29.59375-8.265625-55.75-31.347656-74.902343-63.902344zm18.019531 12.824219c-.960937-4.128906-1.875-8.414062-2.742187-12.824219h58.730469c-1.1875 6.039063-2.460938 11.808594-3.820313 17.273438-9.804687 39.460937-20.671875 49.988281-25.546875 49.988281-5.171875 0-16.59375-11.464844-26.621094-54.4375zm50.867188 51.085938c5.960937-10.160157 11.257812-24.507813 15.859375-43.019532 1.632812-6.566406 3.144531-13.550781 4.535156-20.890625h54.53125c-19.15625 32.566407-45.320313 55.652344-74.925781 63.910157zm22.984375-78.910157c3.21875-20.496093 5.558593-43.234375 6.902343-67.25h74.046876c-4.148438 24.554688-11.367188 47.292969-21.003907 67.25zm98.167969-82.25c1.199218-11.027343 1.816406-22.269531 1.816406-33.644531s-.617188-22.613281-1.8125-33.644531h49.882812c1.878906 10.941406 2.871094 22.179687 2.871094 33.644531s-.992188 22.707031-2.871094 33.644531zm-60.308594-229.902343-12.933594-12.9375c-5.417969-5.414063-8.402344-12.617188-8.402344-20.277344s2.984375-14.863282 8.402344-20.28125c5.417969-5.417969 12.621094-8.402344 20.28125-8.402344s14.863281 2.984375 20.277344 8.402344l12.011718 12.011718c3.4375 3.433594 9.019532 3.433594 12.457032 0l12.011718-12.011718c5.414063-5.417969 12.617188-8.402344 20.277344-8.402344s14.863282 2.984375 20.28125 8.402344c5.417969 5.417968 8.402344 12.621094 8.402344 20.28125s-2.984375 14.863281-8.402344 20.277344l-49.140625 49.140624c-16.183593-14.234374-34.535156-26.058593-54.492187-34.90625-.289063-.460937-.628906-.898437-1.03125-1.296874zm-102.589844-87.585938h35v71.410156c-5.773438-.46875-11.605469-.722656-17.5-.722656-.871094 0-1.742188.011719-2.609375.035156-5.007813.058594-9.972656.285156-14.890625.6875zm-58.023438 100.65625c-15.621093 13.464844-29.492187 31.128906-40.820312 52.292969h-32.292969c19.914063-22.582031 44.878907-40.609375 73.113281-52.292969zm-73.109374 314.082031h32.304687c3.5 6.511719 7.277344 12.773438 11.328125 18.742188 8.90625 13.105469 18.78125 24.316406 29.398438 33.515625-28.203126-11.679688-53.136719-29.695313-73.03125-52.257813zm224.234374 52.261719c10.617188-9.203125 20.492188-20.414062 29.394532-33.519531 4.054687-5.96875 7.832031-12.230469 11.332031-18.742188h32.304687c-19.894531 22.5625-44.828124 40.578125-73.03125 52.261719zm0 0"/></svg>