<svg viewBox="0 0 512 512" xmlns="http://www.w3.org/2000/svg"><path d="m286.90625 122.59375h-61.8125v-53.691406c0-2.210938 1.792969-4 4-4h53.8125c2.207031 0 4 1.789062 4 4zm0 0" fill="#ebe4e2"/><path d="m286.90625 122.59375h-30.90625v-57.691406h26.90625c2.207031 0 4 1.789062 4 4zm0 0" fill="#d1c4c4"/><path d="m242.609375 0h26.785156v64.902344h-26.785156zm0 0" fill="#685c79"/><path d="m443.234375 310.085938c0 103.40625-83.828125 187.234374-187.234375 187.234374s-187.234375-83.828124-187.234375-187.234374 83.828125-187.234376 187.234375-187.234376 187.234375 83.828126 187.234375 187.234376zm0 0" fill="#51c4f5"/><path d="m457.914062 310.085938c0 40.667968-12.03125 78.535156-32.730468 110.230468-1.179688 1.808594-3.566406 2.371094-5.417969 1.261719-5.710937-3.417969-12.398437-5.382813-19.539063-5.382813-21.066406-.003906-38.121093 17.050782-38.121093 38.117188 0 7.144531 1.96875 13.828125 5.386719 19.539062 1.109374 1.851563.546874 4.238282-1.261719 5.417969-31.695313 20.699219-69.558594 32.730469-110.230469 32.730469s-78.535156-12.03125-110.234375-32.730469c-1.804687-1.183593-2.367187-3.566406-1.257813-5.417969 3.414063-5.710937 5.382813-12.398437 5.382813-19.539062 0-21.066406-17.050781-38.121094-38.117187-38.121094-7.144532 0-13.832032 1.96875-19.539063 5.386719-1.855469 1.109375-4.238281.546875-5.417969-1.261719-20.699218-31.695312-32.734375-69.5625-32.734375-110.234375s12.03125-78.535156 32.734375-110.230469c1.179688-1.808593 3.5625-2.371093 5.417969-1.261718 5.707031 3.417968 12.394531 5.382812 19.539063 5.382812 21.066406.003906 38.117187-17.050781 38.117187-38.117187 0-7.144531-1.96875-13.828125-5.382813-19.539063-1.109374-1.851562-.546874-4.238281 1.257813-5.417968 31.699219-20.699219 69.5625-32.734376 110.234375-32.734376s78.535156 12.035157 110.234375 32.734376c1.804687 1.179687 2.367187 3.566406 1.257813 5.417968-3.414063 5.710938-5.382813 12.394532-5.382813 19.539063 0 21.066406 17.050781 38.121093 38.117187 38.117187 7.144532 0 13.832032-1.964844 19.539063-5.382812 1.855469-1.109375 4.238281-.546875 5.417969 1.261718 20.699218 31.695313 32.730468 69.5625 32.730468 110.234376zm0 0" fill="#685c79"/><g fill="#594f69"><path d="m362.3125 161.976562c.574219-5.671874 2.386719-10.980468 5.171875-15.640624 1.109375-1.859376.5625-4.25-1.253906-5.4375-31.695313-20.699219-69.558594-32.730469-110.230469-32.730469-5.195312 0-10.347656.199219-15.445312.585937 46.878906 3.550782 89.273437 23.113282 121.757812 53.222656zm0 0"/><path d="m240.554688 511.414062c5.097656.386719 10.25.585938 15.445312.585938 40.671875 0 78.535156-12.03125 110.230469-32.730469 1.816406-1.183593 2.363281-3.578125 1.253906-5.4375-2.785156-4.660156-4.597656-9.964843-5.171875-15.640625-32.484375 30.109375-74.878906 49.675782-121.757812 53.222656zm0 0"/><path d="m425.183594 199.851562c-1.183594-1.8125-3.570313-2.367187-5.425782-1.253906-5.707031 3.414063-12.390624 5.378906-19.53125 5.378906-1.15625 0-2.296874-.0625-3.429687-.160156 19.148437 30.867188 30.214844 67.273438 30.214844 106.269532 0 38.992187-11.066407 75.398437-30.214844 106.269531 1.132813-.101563 2.273437-.160157 3.429687-.160157 7.136719 0 13.824219 1.964844 19.53125 5.378907 1.855469 1.109375 4.242188.554687 5.425782-1.257813 20.699218-31.695312 32.730468-69.558594 32.730468-110.230468 0-40.671876-12.03125-78.535157-32.730468-110.234376zm0 0"/></g><path d="m294.117188 310.085938c0 21.050781-17.066407 38.117187-38.117188 38.117187s-38.117188-17.066406-38.117188-38.117187c0-21.050782 17.066407-38.117188 38.117188-38.117188s38.117188 17.066406 38.117188 38.117188zm0 0" fill="#ff2c5c"/><path d="m256 271.96875c-5.503906 0-10.726562 1.175781-15.453125 3.273438 13.347656 5.929687 22.664063 19.292968 22.664063 34.84375 0 15.546874-9.316407 28.910156-22.664063 34.84375 4.722656 2.097656 9.949219 3.273437 15.453125 3.273437 21.050781 0 38.117188-17.066406 38.117188-38.117187 0-21.054688-17.066407-38.117188-38.117188-38.117188zm0 0" fill="#e62753"/><path d="m417.222656 310.085938c0 18.207031-14.757812 32.964843-32.964844 32.964843-18.207031 0-32.964843-14.757812-32.964843-32.964843 0-18.207032 14.757812-32.96875 32.964843-32.96875 18.207032 0 32.964844 14.761718 32.964844 32.96875zm0 0" fill="#ffd659"/><path d="m160.707031 310.085938c0 18.207031-14.757812 32.964843-32.964843 32.964843-18.207032 0-32.964844-14.757812-32.964844-32.964843 0-18.207032 14.757812-32.96875 32.964844-32.96875 18.207031 0 32.964843 14.761718 32.964843 32.96875zm0 0" fill="#ffd659"/><path d="m384.257812 277.117188c-5.585937 0-10.84375 1.394531-15.453124 3.847656 10.417968 5.539062 17.511718 16.5 17.511718 29.121094 0 12.621093-7.09375 23.578124-17.511718 29.121093 4.609374 2.449219 9.867187 3.84375 15.453124 3.84375 18.207032 0 32.964844-14.757812 32.964844-32.964843 0-18.207032-14.757812-32.96875-32.964844-32.96875zm0 0" fill="#ffbd54"/><path d="m127.742188 277.117188c-5.585938 0-10.84375 1.394531-15.453126 3.847656 10.417969 5.539062 17.511719 16.5 17.511719 29.121094 0 12.621093-7.09375 23.578124-17.511719 29.121093 4.609376 2.449219 9.867188 3.84375 15.453126 3.84375 18.207031 0 32.964843-14.757812 32.964843-32.964843 0-18.207032-14.757812-32.96875-32.964843-32.96875zm0 0" fill="#ffbd54"/><path d="m288.964844 438.34375c0 18.203125-14.757813 32.964844-32.964844 32.964844s-32.964844-14.761719-32.964844-32.964844c0-18.207031 14.757813-32.96875 32.964844-32.96875s32.964844 14.761719 32.964844 32.96875zm0 0" fill="#51c4f5"/><path d="m288.964844 181.828125c0 18.207031-14.757813 32.964844-32.964844 32.964844s-32.964844-14.757813-32.964844-32.964844 14.757813-32.96875 32.964844-32.96875 32.964844 14.761719 32.964844 32.96875zm0 0" fill="#51c4f5"/><path d="m256 405.375c-5.585938 0-10.84375 1.394531-15.453125 3.847656 10.417969 5.539063 17.511719 16.496094 17.511719 29.121094 0 12.621094-7.09375 23.578125-17.511719 29.121094 4.609375 2.449218 9.867187 3.84375 15.453125 3.84375 18.207031 0 32.964844-14.757813 32.964844-32.964844s-14.757813-32.96875-32.964844-32.96875zm0 0" fill="#2bade3"/><path d="m256 148.859375c-5.585938 0-10.84375 1.394531-15.453125 3.847656 10.417969 5.539063 17.511719 16.496094 17.511719 29.121094 0 12.621094-7.09375 23.578125-17.511719 29.121094 4.609375 2.449219 9.867187 3.84375 15.453125 3.84375 18.207031 0 32.964844-14.757813 32.964844-32.964844s-14.757813-32.96875-32.964844-32.96875zm0 0" fill="#2bade3"/><path d="m512 76.746094c0 11.382812-9.226562 20.605468-20.605469 20.605468-11.378906 0-20.601562-9.222656-20.601562-20.605468 0-11.378906 9.222656-20.601563 20.601562-20.601563 11.378907 0 20.605469 9.222657 20.605469 20.601563zm0 0" fill="#ff2c5c"/><path d="m115.894531 76.746094c0 11.382812-9.222656 20.605468-20.601562 20.605468-11.378907 0-20.605469-9.222656-20.605469-20.605468 0-11.378906 9.226562-20.601563 20.605469-20.601563 11.378906 0 20.601562 9.222657 20.601562 20.601563zm0 0" fill="#ffd659"/><path d="m470.277344 490.882812c0 11.378907-9.222656 20.601563-20.601563 20.601563-11.382812 0-20.605469-9.222656-20.605469-20.601563 0-11.382812 9.222657-20.605468 20.605469-20.605468 11.378907 0 20.601563 9.222656 20.601563 20.605468zm0 0" fill="#ffd659"/><path d="m41.207031 486.761719c0 11.378906-9.222656 20.601562-20.601562 20.601562-11.378907 0-20.605469-9.222656-20.605469-20.601562 0-11.378907 9.226562-20.605469 20.605469-20.605469 11.378906 0 20.601562 9.226562 20.601562 20.605469zm0 0" fill="#ff2c5c"/><path d="m79.839844 240.546875c0 14.222656-11.53125 25.753906-25.753906 25.753906-14.226563 0-25.757813-11.53125-25.757813-25.753906s11.53125-25.753906 25.757813-25.753906c14.222656 0 25.753906 11.53125 25.753906 25.753906zm0 0" fill="#ff2c5c"/><path d="m483.671875 373.957031c0 14.222657-11.53125 25.753907-25.757813 25.753907-14.222656 0-25.753906-11.53125-25.753906-25.753907 0-14.226562 11.53125-25.757812 25.753906-25.757812 14.226563 0 25.757813 11.53125 25.757813 25.757812zm0 0" fill="#ff2c5c"/></svg>