<svg height="511pt" viewBox="1 1 511.99999 511" width="511pt" xmlns="http://www.w3.org/2000/svg"><path d="m186.183594 326.316406h-116.367188c-12.851562 0-23.269531 10.421875-23.269531 23.273438v69.820312c-25.707031 0-46.546875 20.839844-46.546875 46.542969 0 25.707031 20.839844 46.546875 46.546875 46.546875 25.703125 0 46.542969-20.839844 46.542969-46.546875v-93.089844h69.820312v23.273438c-25.707031 0-46.546875 20.839843-46.546875 46.546875 0 25.703125 20.839844 46.542968 46.546875 46.542968 25.703125 0 46.542969-20.839843 46.542969-46.542968v-93.09375c0-12.851563-10.417969-23.273438-23.269531-23.273438zm0 0" fill="#48e1f4"/><path d="m93.089844 209.953125 288.085937 288.085937c19.28125 19.28125 50.539063 19.28125 69.820313 0 19.277344-19.277343 19.277344-50.539062 0-69.816406l-8.816406-8.8125v-73.8125c0-12.34375-4.902344-24.183594-13.632813-32.914062l-219.09375-219.09375c-32.132813-32.132813-84.230469-32.132813-116.363281 0-32.132813 32.132812-32.132813 84.230468 0 116.363281zm0 0" fill="#2c2f53"/><path d="m290.910156 384.5 93.089844-93.089844c6.425781-6.429687 16.847656-6.429687 23.273438 0 6.425781 6.425782 6.425781 16.84375 0 23.269532l-93.09375 93.09375c-6.425782 6.425781-16.84375 6.425781-23.269532 0-6.429687-6.425782-6.429687-16.847657 0-23.273438zm0 0" fill="#1e2147"/><path d="m330.636719 391.316406 60.179687-60.179687c6.425782-6.425781 16.847656-6.425781 23.273438 0 6.425781 6.425781 6.425781 16.847656 0 23.273437l-60.179688 60.179688c-6.425781 6.425781-16.84375 6.425781-23.273437 0-6.425781-6.425782-6.425781-16.847656 0-23.273438zm0 0" fill="#4c4f6e"/><path d="m290.910156 384.5 30.089844-30.089844c6.425781-6.425781 16.84375-6.425781 23.269531 0 6.429688 6.425782 6.429688 16.847656 0 23.273438l-30.085937 30.089844c-6.429688 6.425781-16.847656 6.425781-23.273438 0-6.429687-6.425782-6.429687-16.847657 0-23.273438zm0 0" fill="#080b36"/><path d="m284.09375 214.773438c6.425781-6.425782 16.84375-6.425782 23.273438 0l36.902343 36.90625c6.429688 6.425781 6.429688 16.847656 0 23.273437-6.425781 6.425781-16.84375 6.425781-23.269531 0l-36.90625-36.90625c-6.425781-6.425781-6.425781-16.847656 0-23.273437zm0 0" fill="#cacad4"/><path d="m126.003906 196.320312c12.851563-12.851562 33.691406-12.851562 46.542969 0l101.90625 101.90625c12.851563 12.851563 12.851563 33.691407 0 46.542969-12.855469 12.855469-33.691406 12.855469-46.546875 0l-101.902344-101.902343c-12.855468-12.851563-12.855468-33.691407 0-46.546876zm0 0" fill="#080b36"/><path d="m358.730469 429.046875c12.851562-12.851563 33.691406-12.851563 46.546875 0l27.265625 27.265625c12.851562 12.855469 12.851562 33.695312 0 46.546875-12.855469 12.851563-33.695313 12.851563-46.546875 0l-27.265625-27.265625c-12.851563-12.851562-12.851563-33.691406 0-46.546875zm0 0" fill="#080b36"/><path d="m232.726562 116.863281c0 64.265625-52.097656 116.363281-116.363281 116.363281s-116.363281-52.097656-116.363281-116.363281 52.097656-116.363281 116.363281-116.363281 116.363281 52.097656 116.363281 116.363281zm0 0" fill="#2c2f53"/><path d="m246.441406 144.457031c-9.5625 0-18.15625 5.851563-21.660156 14.746094-3.867188 9.917969-9.082031 19.253906-15.503906 27.738281l-.003906.007813-.050782.066406-.007812.011719-.054688.066406v.003906l-.054687.070313-.003907.007812-.050781.066407-.007812.007812-.050781.066406-.007813.011719-.050781.066406-.003906.003907-.050782.070312-.007812.007812-.050782.066407-.007812.007812-.058594.078125-.050781.0625-.003906.007813-.058594.078125c-.191406.246094-.382813.496094-.578125.742187l-.007812.011719-.050782.0625-.007812.007812-.046875.0625-.019531.023438-.039063.050781-.019531.023438-.039063.050781-.023437.03125-.035156.042969-.023438.027343-.03125.042969-.027344.03125-.035156.042969-.023438.03125-.03125.042969-.023437.03125-.039063.042969-.023437.03125-.03125.039062-.027344.035156-.03125.039063-.054687.070312-.03125.039063-.027344.035156-.03125.039062-.027344.03125-.03125.042969-.027344.03125-.03125.039063-.027343.035156-.03125.039062-.027344.03125-.03125.042969-.023437.027344-.035157.042969-.023437.03125-.035156.042968-.019532.023438-.039062.050781-.023438.027344-.035156.042969-.027344.03125-.03125.042968-.027344.03125-.03125.039063-.027343.03125-.03125.042969-.027344.027344c-.085937.105468-.167969.210937-.253906.316406l-.015625.015625-.046875.058593-.011719.011719-.046875.058594-.011719.015625-.042968.046875-.015626.023437-.042968.054688-.019532.019531-.039062.050781-.019531.019532-.042969.050781-.015625.019531-.042969.054688-.015625.015625-.046875.058593-.011718.011719-.046876.058594-.015624.015625-.042969.054688-.015625.019531-.042969.046875-.019531.023437-.039063.050781-.019531.019532-.042969.054687-.015625.015625-.046875.058594-.007812.011719-.050781.058593-.011719.011719-.046875.058594-.011719.011719-.046875.058594-.015625.015624-.046875.054688-.015625.019531-.042969.050781-.015625.019532-.046875.054687-.003906.007813-.054688.0625-.007812.007812c-.277344.328125-.558594.652344-.839844.976563v.003906c-.082031.089844-.164062.183594-.242187.273437l-.003907.007813-.121093.136719-.058594.066406-.003906.003906-.054688.0625-.007812.011719-.058594.0625v.003906l-.058594.066407-.003906.003906-.058594.066406-.003906.003906-.058594.0625-.003906.007813c-.492187.550781-.988281 1.101562-1.492187 1.648437l-.003907.007813-.058593.0625-.003907.003906-.0625.066406-.0625.070313-.058593.0625-.011719.011718-.054688.058594-.007812.007813-.054688.058593-.011719.011719-.050781.058594-.011719.007813-.050781.058593-.011719.011719-.054687.058594-.066406.066406-.007813.011719-.117187.125-.011719.011719-.054688.058593-.003906.003907-.0625.066406c-.214844.226562-.425781.453125-.644531.679687l-.121094.125-.007812.011719-.066407.066406-.050781.054688-.015625.015625-.050781.054687-.015625.011719-.046875.050781-.085937.085938-.042969.046875-.023438.023437-.042969.046875-.023437.019531-.042969.046876-.023437.023437-.042969.046875-.023438.019531-.042968.042969-.027344.03125-.035156.039062-.230469.230469-.039063.042969-.199218.199219-.027344.03125-.203125.203125-.035156.039062-.035157.03125-.101562.101563-.035156.039062-.097656.097657c-.023438.023437-.046876.042968-.070313.066406l-.023437.027344-.046876.042968-.136718.136719-.035156.03125-.203126.203125-.042968.039062-.03125.03125-.035156.039063-.03125.027344-.113282.113281-.027344.023438-.042968.046874-.027344.023438-.070312.070312c-.046876.042969-.09375.089844-.140626.136719l-.066406.066407-.03125.027343-.136718.136719-.042969.039062-.03125.027344-.136719.136719-.042969.039063-.074219.074218-.023437.019532-.042969.042968-.03125.027344-.117187.117188-.019531.015624-.058594.058594-.011719.007813c-.074219.070312-.144531.136719-.214844.207031l-.015625.011719-.054687.054687-.023438.019532-.042969.042968-.035156.03125-.039062.035156-.027344.03125-.042969.039063-.027343.027344-.046876.039062-.023437.023438-.046875.042969-.070312.070312-.023438.019531-.050781.046875-.023438.023438-.046875.042968-.023437.023438-.050781.042969-.019532.023437c-.09375.085938-.191406.179688-.285156.265625l-.015625.015625-.058594.054688-.011719.007812-.058593.054688-.023438.019531-.050781.046875-.019531.019531-.046875.042969-.027344.027344-.046875.042968-.027344.023438-.042969.039062-.027343.027344-.046875.042969-.023438.019531-.050781.046875-.019531.019531-.058594.050782-.015625.015625-.058594.054687-.011719.007813-.066406.0625-.007812.003906c-.09375.089844-.195313.179687-.292969.269531l-.003906.003906-.066407.058594-.011718.011719-.0625.054687-.011719.011719-.058594.050781-.019531.019532-.050781.046875-.023438.019531-.046875.042969-.027344.023437-.046874.042969-.023438.019531-.050781.046875-.023438.019531-.054687.050782-.015625.011718-.058594.054688-.015625.011719c-.097656.085937-.195312.171875-.292969.257812l-.003906.007813-.070313.058594-.003906.007812-.070312.058594-.007813.007812-.066406.058594-.007813.007812-.0625.054688-.015624.015625-.058594.046875-.015625.015625-.058594.050781-.015625.011719-.054688.050781-.019531.015625-.050781.046875-.023438.019532-.054687.050781-.015625.011719c-.175781.148437-.347656.300781-.519531.449218l-.011719.007813-.066406.058593-.003906.003907-.070313.058593-.007813.007813-.066406.054687-.007812.011719-.0625.050781-.015625.011719-.0625.054688-.011719.007812-.0625.054688-.011719.007812-.070312.058594v.003906l-.070313.058594-.007812.007813c-.175782.148437-.351563.296874-.527344.445312l-.074219.058594-.003906.007812-.074219.058594-.003906.003906-.070312.058594-.003907.003906-.070312.058594-.007813.003906-.070312.058594-.003906.003906c-.300782.253906-.605469.503906-.914063.753906-.304687.25-.613281.496094-.917969.742188h-.003906c-.101562.082031-.203125.164062-.304688.246094-3.464843 2.746094-7.085937 5.292968-10.839843 7.625l-.003907.003906-.160156.097656-.003906.003906c-.300781.183594-.601562.367188-.902344.550782l-.003906.003906-.078125.046875-.011719.003906-.066406.042969-.015625.007812-.0625.039063-.023437.015625-.0625.035156-.015626.011719-.070312.042969-.007812.003906c-.273438.164062-.546876.328125-.824219.488281l-.007813.003907-.070312.042968-.015625.007813-.066407.039062-.015624.011719-.066407.039062-.015625.007813-.0625.035156-.023437.015625-.058594.035156-.023437.011719-.066407.039063-.011719.007812-.074218.039063-.007813.007812c-.109375.0625-.21875.125-.328125.191407l-.015625.007812-.066406.035156-.023437.015625-.078126.046875-.0625.03125-.027343.019532-.046875.027343-.039063.019531-.039062.023438-.042969.027344-.039062.019531-.042969.023437-.078125.046876-.042969.023437-.039063.023437-.035156.019532-.050781.027344-.027344.015624-.046875.027344-.035156.019532c-.085938.050781-.175781.097656-.261719.148437l-.027343.015625-.042969.023438-.035157.019531-.046874.027343-.035157.019532-.046875.027344-.03125.015624-.046875.027344-.039062.019532-.042969.027343-.03125.015625-.050781.027344-.03125.019531-.046875.027344-.035156.015625-.050782.027344-.027344.015625-.050781.03125-.023437.011719-.058594.03125-.015625.011718c-.207031.109375-.410156.222656-.613281.335938h-.003906l-.074219.039062-.007813.003906-.070312.039063-.007813.003906-.074219.039063-.003906.003906-.078125.042969c-4.65625 2.511719-9.480469 4.699219-14.433593 6.550781-12.046876 4.484375-18.171876 17.886719-13.6875 29.929688 4.488281 12.046874 17.886718 18.171874 29.933593 13.6875.011719-.003907.023438-.007813.035157-.015626 43.363281-16.253906 77.78125-50.160156 94.679687-93.277343 4.671875-11.980469-1.253906-25.484375-13.234375-30.15625-2.6875-1.042969-5.546875-1.585938-8.433594-1.585938zm0 0" fill="#080b36"/><path d="m120.957031 26.097656c-25.578125-5.601562-48.363281-.761718-50.898437 10.804688-2.53125 11.570312 16.148437 25.488281 41.726562 31.085937 25.574219 5.601563 48.363282.761719 50.894532-10.804687 2.535156-11.570313-16.148438-25.488282-41.722657-31.085938zm0 0" fill="#4c4f6e"/><path d="m34.082031 199.144531c45.441407 45.445313 119.121094 45.445313 164.5625 0l.070313-.070312.027344-.023438.042968-.046875.390625-.390625.007813-.011719c.0625-.0625.121094-.121093.179687-.183593l.011719-.007813.050781-.054687.207031-.207031.015626-.019532.121093-.121094.109375-.113281.023438-.023437.03125-.035156.066406-.066407.042969-.046875.09375-.09375c.289062-.300781.578125-.601562.863281-.90625l.003906-.003906c.191406-.203125.382813-.40625.570313-.605469 8.222656-9.046875 7.875-22.964843-.789063-31.589843-.15625-.15625-.320312-.316407-.484375-.46875-9.394531-8.824219-24.125-8.511719-33.136719.707031l-1.429687 1.472656c-27.285156 27.21875-71.457031 27.21875-98.738281 0-10.652344-10.585937-17.570313-24.34375-19.714844-39.207031-.019531-.140625-.042969-.28125-.0625-.421875-.015625-.113281-.027344-.226563-.042969-.339844l-.097656-.761719c-1.578125-12.757812-13.195313-21.820312-25.953125-20.246094-12.628906 1.5625-21.664062 12.972657-20.28125 25.625.023438.191407.046875.386719.070312.578126l.003907.03125.007812.066406.015625.113281.003906.03125c.03125.257813.066407.515625.101563.773437v.003907c.015625.101562.027344.210937.042969.3125.019531.136719.039062.273437.0625.410156.019531.175781.042968.355469.070312.535156l.007813.042969.007812.070312.007813.054688.015625.097656.007812.054688.011719.070312.007812.0625.015626.085938.007812.054687.011719.09375.007812.054688.011719.074219.007812.046874.023438.152344.011719.082032.011719.058593.011718.085938.007813.046875.015625.105468.007812.039063.011719.089844.007813.035156.023437.152344c.007813.035156.011719.070312.019531.101562l.003906.039063.015626.089844.007812.042968.015625.105469.007813.042969.011718.082031.011719.058594.011719.089843.007812.042969.019532.105469.023437.128906.003906.035156.019531.109376.007813.046874.015625.101563.007812.039063.023438.128906.015625.105468.007813.046876.015624.082031.011719.054687.015625.089844.007813.042969.019531.109375.003906.039062.015625.085938.007813.039062.019531.105469.007813.042969.015624.101562.007813.039063.019531.089843.007813.046876.019531.105468.007812.042969.011719.078125.011719.050781.015625.097657.011719.042968.019531.109375.007813.039063.015624.085937.007813.039063.019531.109375.007813.039062.019531.101563.007812.03125.019532.101562.003906.035156.023438.113282.007812.035156.015625.089844.007813.035156c.007812.039062.015624.074219.023437.109375l.007813.042969.019531.109375.007812.03125.015625.089843.007813.039063c.007812.035156.015625.074219.023437.109375l.027344.136719.003906.03125.023438.105469.007812.039062.023438.109375.007812.039063.015625.085937.007813.035156.023437.109375.007813.042969.03125.140625.019531.089844.007813.039062.019531.109375.011719.042969.023437.117188.023437.113281.007813.039062.023437.109375.007813.035156.019531.089844.007813.039063.023437.109375.011719.035156.023437.113281.003907.023438.023437.097656.007813.039063.023437.109374.007813.039063.019531.09375.007812.027344.023438.109375.011719.042968.023437.109376.007813.035156.019531.078125.007812.046875.023438.105468.011719.042969.019531.09375.011719.042969.019531.09375.011719.039062.023437.109376.007813.035156.03125.125.023437.109375.007813.039062.027343.109375.007813.035156.019531.085938.011719.042969.035156.140625.023438.101562.007812.035156.023438.101563.007812.035156.027344.109375.011719.039063.019531.09375.007813.027343.027343.113282.007813.035156.03125.113281.003906.027344.023438.09375.011718.039063.023438.109374.011718.035157.023438.097656.007812.03125.027344.105469.007813.039062.027343.105469.011719.042969.019531.082031.011719.035156.027344.109375.007813.042969.027343.097656.007813.039063.023437.089844.011719.042968.027344.105469.011718.042969.019532.085937.011718.035157c.007813.035156.015626.070312.027344.105468l.011719.039063.027344.109375.007812.035156.023438.089844.011719.035156.027343.105469.035157.140625.011718.039062.023438.085938.011718.046875.027344.105469.011719.035156.03125.125.03125.109375.011719.042969c.007812.035156.019531.070312.027344.105468l.011718.035156.023438.085938.011718.039062.027344.105469.011719.039063c.007813.035156.019531.066406.027344.097656l.007812.039062c.011719.03125.019531.0625.027344.09375l.011719.042969.03125.105469.007812.035156.027344.089844.007812.03125c.011719.039062.023438.074219.03125.113281l.011719.035157.03125.113281.007813.027343.027344.09375.007812.035157.03125.109375.011719.035156.027343.097656.007813.03125.03125.101563.011719.039062.03125.109375.007812.03125.027344.09375.011719.03125.03125.113282.011719.035156.039062.136718.03125.097657.007812.027343c.011719.039063.019532.078126.03125.113282l.011719.035156.027344.097656.007813.023438.035156.113281.011718.039063.039063.136718.03125.09375.007813.03125.035156.109375.011718.039063.027344.09375.011719.046875.027344.089843.015625.039063.03125.105469.011718.039062c.007813.027344.019532.058594.027344.089844l.007813.027344.035156.105468.011719.046876.035156.101562.011719.039062.023437.082032.015625.042968.03125.101563.011719.042969.03125.09375.011719.039062.027343.089844.015626.042969.03125.105469.011718.039062.027344.085938.011719.03125.035156.105468.011719.042969.035156.109375.039062.117188.011719.039062.035157.105469.011718.039062.03125.089844.015625.042969.027344.09375.015625.039062.035156.109375.011719.035157.027344.085937.046875.140625.015625.042969.035156.105469.007813.027343.042968.128907.035156.109374.011719.03125.03125.097657.011719.027343.046875.140626.039063.109374.007812.035157.035156.09375.007813.027343.039062.109376.011719.035156.039062.113281.003907.015625.035156.101562.011719.035157.039062.109375.011719.03125.03125.097656.007813.023438.042968.113281.007813.03125c.015625.039062.027343.078125.039062.113281l.011719.03125.03125.089844.011719.03125.039062.105468.015625.042969.042969.128907.035156.097656.015625.035156.035156.109375.015626.035156.03125.085938.011718.03125.039063.109375.011719.035156.039062.109375.011719.027344.03125.09375.011719.03125.039062.109375.015625.039062.035156.09375.011719.027344.035156.101562.015625.039063.039063.105469.011718.03125.03125.09375.011719.03125.039063.105468.015625.039063.039062.109375.011719.023438.035156.09375.011719.035156.039063.105468.015624.035157.035157.097656.007812.023437.042969.109376.011719.03125.042969.113281.011718.027343.035156.09375.011719.027344.042969.109375.011719.035157.042969.109374.007812.023438.035156.09375.015625.039062.039063.105469.015625.035157.035156.089843.011719.027344.042968.109375.011719.03125.042969.113281.011719.027344c.011719.03125.023437.058594.035156.089844l.011719.035156c.015625.035156.03125.070313.042968.105469l.015626.035156.039062.101562.011719.03125.039062.09375.011719.035157.042969.105469.015625.039062.035156.085938.011719.027343.042969.109375.015624.035156.042969.109376.011719.027343c.011719.03125.023438.0625.035156.09375l.011719.027344c.015625.039063.03125.074219.046875.109375l.011719.03125.042969.101562.007812.027344.042969.101563.011719.03125.046874.109375.011719.035156.039063.089844.011718.023437.042969.109375.015625.039063.042969.105469.011719.027343.039062.089844.015625.035156.042969.105469.011719.035156.042969.097656.007812.019532.042969.105468.015625.039063.046875.101563.015625.039062.035156.085938.011719.03125.0625.140624.046875.109376.007812.015624.039063.101563.015625.03125.0625.140625.039062.089844.011719.03125.042969.105468.0625.140626.011718.027343.042969.09375.058594.136719.015625.035156.042969.097656.011719.03125.042968.089844.015625.039063c.015625.035156.03125.070312.046875.105469l.015625.03125.035157.085937.015624.035156.046876.101563.015624.039062c.015626.035156.03125.070313.046876.101563l.015624.039062.035157.078125.019531.039063.046875.101562.015625.039063.039062.089844.019532.039062.039062.089844.019532.039062c.011718.035156.027343.066406.042968.101563l.019532.035156.035156.085937.015625.03125.046875.105469.019531.035157.046875.101562.015625.035156.039063.085938.015624.03125.0625.140625.046876.101562.007812.015625.050781.105469.015625.035156c.015625.035157.03125.070313.046875.101563l.015625.039062.039063.078125.015625.035157.050781.101562.058594.128906.023437.046875.035156.082031.019532.039063.046875.097656.019531.042969.039062.082031.019532.039063.042968.089844.019532.042968.046875.101563.015625.03125.042968.082031.015626.039062.046874.097657.023438.042969.039062.082031.023438.050781.039062.078125.019532.042969.046875.097656.019531.039062.039062.082032.019532.039062.046875.089844.019531.046875.046875.097656.019531.035157.058594.117187.046875.097656.019531.039063.042969.082031.027344.058594.058593.117187.046876.097656.023437.039063.035156.074219.023438.046875.042969.089843.023437.042969.046875.097657.019531.039062.039063.070312.019531.046876.050781.09375.019532.046874.039062.074219.027344.054688.042968.078125.089844.179687.039063.074219.019531.039062.050781.097657.019531.042969.050782.089843.019531.042969.058594.117188.050781.097656.023438.039062.0625.125.046874.085938.019532.039062.054687.101563.015625.03125.046875.089843.011719.023438c.019531.035156.039062.070312.054688.105469l.019531.035156.054687.105469.011719.015625.050781.097656.015625.03125.054688.101563.019531.039062.042969.082031.015625.027344.054687.101563.019531.039062.054688.097656.015625.035156.046875.082032.015625.03125.054687.101562.023438.039063.050781.097656.011719.023437.050781.089844.019531.039063.054688.097656.019531.035156.042969.082031.019531.039063c.019531.03125.035157.0625.054688.09375l.019531.035156.054688.105469.015624.023438c.015626.03125.03125.058593.046876.089843l.019531.03125.054687.101563.019532.035156c.015624.03125.03125.058594.050781.085938l.019531.039062.046875.085938.023437.039062.054688.101562.015625.027344.046875.085938.019531.03125.054688.101562.019531.035156.058594.101563.0625.109375.019531.035156.058594.101563.019531.035156.050781.085937.015625.027344.050782.097656.023437.035157.058594.101562.015625.03125.046875.082031.019531.035157.058594.097656.019531.035156.058594.097657.015625.03125.046875.082031.019531.035156.058594.097656.019531.039063.050781.085937.015625.023438.058594.101562.019531.035157.058594.101562.015625.027344.050781.082031.019532.035156.058593.097657.019531.035156.058594.097656.011719.023438c.019531.03125.039063.0625.054687.09375l.019532.03125.058594.101562.023437.035156.0625.109375.140625.234375.019531.03125.070313.117188c.019531.03125.039062.0625.058594.09375l.019531.039062c.019531.03125.039062.058594.054687.089844l.015625.023438.058594.09375.019531.035156.058594.097656.019531.03125c.019531.027344.035157.058594.054688.085938l.015625.027343c.019531.03125.039062.066407.058594.101563l.023437.03125.058594.101562.019531.027344.046875.082031.023437.035157.058594.097656.023438.035156.050781.085938.023437.03125.054688.09375.023438.03125.058593.101562.019531.03125.054688.082031.015625.027344c.019531.035156.039063.066406.0625.101563l.019531.03125c.023438.035156.042969.066406.0625.101562l.015625.023438.054688.085937.019531.035156.0625.097657.019531.035156.054688.082031.015625.027344.0625.097656.019531.03125.066406.101563.015625.027343.054688.085938.019531.027343c.019531.035157.042969.066407.0625.101563l.019531.03125.066406.101563.011719.015624.078125.125.066406.101563.015626.027344.058593.089843.015625.019532c.019532.035156.042969.070312.066406.105468l.019532.027344c.019531.035156.042968.070313.0625.101563l.019531.027343.054687.085938.019532.027344.0625.097656.023437.035156c.019531.03125.039063.058594.058594.089844l.019531.027344.058594.089844.019531.03125.066407.101562.015624.027344.0625.089844.011719.019531.066407.101562.023437.03125c.019531.03125.042969.066407.066406.101563l.015625.023437.054688.085938.019531.027343.066406.101563.023438.03125c.019531.027344.039062.058594.0625.089844l.011719.019531.085937.128906.066406.097656.019531.027344.058594.085938.015625.027344c.023438.03125.046875.066406.066407.101562l.019531.027344.070312.101562.015625.023438.058594.085937.019531.027344.066407.097656.078124.117188.023438.03125c.019531.03125.039062.058593.058594.089843l.027344.035157c.023437.035156.042968.0625.066406.097656l.019531.027344.054687.082031.019532.027344.066406.097656.023438.035156.0625.089844.023437.03125.058594.082031.019531.03125.070312.101563.019532.023437.058594.089844.015624.023437.070313.09375.023437.035157.066407.097656.097656.136719.070313.097656.023437.03125.0625.089844.019531.03125.0625.082031.019532.035156.09375.125.058593.082031.015625.027344.070313.09375.023437.035156.070313.097657.019531.027343.058594.078126.019531.03125.09375.125.0625.089843.015625.023438.070312.09375.019532.027343.074218.101563.015626.023437.066406.085938.015625.023438.070312.097656.023438.03125.070312.097656.082031.109375.015626.023437.074218.101563.019532.027344c.023437.027343.046874.058593.066406.085937l.015625.023438.09375.125.070312.097656.019531.023438.0625.085937.019532.023437c.023437.035157.046875.066407.074218.097657l.023438.03125.070312.097656.015626.019531.0625.085938.023437.027344c.023437.035156.050781.066406.074219.097656l.019531.027344.066406.089843.015625.015625c.023438.035156.046875.066406.070313.097656l.023437.03125.074219.097657.015625.023437.066406.085938.019532.023437.074218.097657.019532.027343c.027343.035157.050781.066407.078124.097657l.007813.015624.070313.089844.023437.027344c.023437.035156.046875.066406.074219.101562l.019531.023438.066406.085938.015625.019531.074219.097656.023437.027344.074219.101562.019531.019531.066407.085938.019531.023438.074219.097656.023437.03125.070313.089844.011719.015624.074218.09375.019532.027344c.027343.03125.054687.0625.078124.097656l.019532.023438.066406.085938.019531.019531.074219.097656.023438.03125.078124.097656.011719.015625.074219.089844.015625.019531c.023437.035157.050781.070313.078125.101563l.019531.023437.074219.097657.007812.007812.082032.101562.019531.023438.082031.097656.011719.019532c.023437.03125.050781.0625.074219.09375l.015625.015624c.027343.03125.054687.066407.082031.101563l.015625.019531c.027344.035156.054687.066406.082031.101563l.007813.007812c.027343.035157.054687.070313.082031.101563l.011719.015625.082031.101562.019531.023438.164063.203125.023437.023437.078125.101563.015625.015625.074219.089843.015625.019532.082031.097656.019532.027344c.027343.03125.054687.066406.082031.097656l.003906.007812c.027344.03125.054687.0625.082031.097657l.019532.023437c.023437.03125.054687.0625.078124.09375l.023438.027344.074219.085938.011719.015624.082031.097657.019531.027343c.027344.03125.054688.066407.082031.097657l.011719.015625.074219.085937.019531.027344.082031.09375.023438.027344.074219.085937.019531.027344c.023437.027344.046875.054688.070312.085938l.023438.027343.082031.09375.019531.023438c.023438.027343.050781.058593.074219.085937l.015625.015625c.027344.035157.054687.066407.082031.097657l.019532.027343c.027343.03125.054687.0625.085937.097657l.011719.015624.074218.085938.019532.023438.085937.097656.015625.019531.085938.097656.003906.003907.085938.101562.019531.023438.082031.09375.019531.027343.074219.082031.015625.019532.085937.097656.019532.023438.085937.097656.007813.011718.078125.089844.023437.019532.082032.097656.019531.019531.082031.097656.007812.007813.085938.097656.019531.023438c.027344.03125.058594.0625.085938.09375l.019531.023437c.023438.027344.050781.058594.074219.082031l.015625.019532.085937.097656.023438.023437.085937.097657.007813.007812.082031.09375.019531.023438.085938.09375.015625.019531.085937.09375.007813.007812c.027344.035157.058594.070313.089844.101563l.015624.019531.089844.097656.011719.015625.085937.09375.011719.011719.089844.097656.019531.023438.179688.199219.019531.019531.089844.097656.011719.015625c.027343.03125.058593.0625.085937.09375l.011719.011719c.03125.035156.058594.0625.085937.097656l.023438.023437.085937.09375.015625.015626.078125.085937.019532.019531c.03125.03125.058593.066406.089843.097656l.019531.019532.089844.097656v.003906l.089844.09375.023438.023438c.03125.035156.058593.066406.089843.097656l.011719.015625.085938.089844.011718.011719.09375.097656.015625.019531.09375.097656.011719.015625c.027344.027344.054688.058594.082031.085938l.019531.019531.089844.097656.019532.019531.089843.09375.003907.003907.089843.097656.019531.019531.09375.097656.015626.015626c.027343.027343.054687.058593.082031.085937l.015625.019531.089844.09375.023437.019532.089844.097656.011719.011718c.027343.027344.058593.058594.085937.089844l.015625.015625c.03125.03125.0625.0625.09375.097657l.019531.019531.085938.089843.007812.007813.09375.097656.019531.019531c.03125.03125.0625.0625.09375.097657l.113282.113281.09375.097656.019531.019532.09375.09375.007813.011718.109374.109375.089844.09375.023438.019531.085937.089844.007813.007813.09375.09375.023437.023437.089844.09375.015625.015625c.03125.027344.058594.054688.085938.085938l.015624.015625.09375.09375.023438.019531zm0 0" fill="#1e2147"/><path d="m23.273438 105.226562c0 6.425782-5.210938 11.636719-11.636719 11.636719s-11.636719-5.210937-11.636719-11.636719c0-6.425781 5.210938-11.636718 11.636719-11.636718s11.636719 5.210937 11.636719 11.636718zm0 0" fill="#080b36"/><path d="m69.816406 58.683594c0 6.425781-5.207031 11.632812-11.632812 11.632812-6.429688 0-11.636719-5.207031-11.636719-11.632812 0-6.429688 5.207031-11.636719 11.636719-11.636719 6.425781 0 11.632812 5.207031 11.632812 11.636719zm0 0" fill="#080b36"/><path d="m116.363281 12.136719c0 6.425781-5.210937 11.636719-11.636719 11.636719-6.425781 0-11.636718-5.210938-11.636718-11.636719s5.210937-11.636719 11.636718-11.636719c6.425782 0 11.636719 5.210938 11.636719 11.636719zm0 0" fill="#080b36"/><path d="m69.816406 151.773438c0 6.425781-5.207031 11.636718-11.632812 11.636718-6.429688 0-11.636719-5.210937-11.636719-11.636718 0-6.425782 5.207031-11.636719 11.636719-11.636719 6.425781 0 11.632812 5.210937 11.632812 11.636719zm0 0" fill="#38249c"/><path d="m116.363281 105.226562c0 6.425782-5.210937 11.636719-11.636719 11.636719-6.425781 0-11.636718-5.210937-11.636718-11.636719 0-6.425781 5.210937-11.636718 11.636718-11.636718 6.425782 0 11.636719 5.210937 11.636719 11.636718zm0 0" fill="#38249c"/><path d="m162.910156 58.683594c0 6.425781-5.210937 11.632812-11.636718 11.632812-6.425782 0-11.636719-5.207031-11.636719-11.632812 0-6.429688 5.210937-11.636719 11.636719-11.636719 6.425781 0 11.636718 5.207031 11.636718 11.636719zm0 0" fill="#38249c"/><g fill="#080b36"><path d="m116.363281 198.316406c0 6.429688-5.210937 11.636719-11.636719 11.636719-6.425781 0-11.636718-5.207031-11.636718-11.636719 0-6.425781 5.210937-11.632812 11.636718-11.632812 6.425782 0 11.636719 5.207031 11.636719 11.632812zm0 0"/><path d="m186.183594 151.773438c0 6.425781-5.210938 11.636718-11.636719 11.636718-6.429687 0-11.636719-5.210937-11.636719-11.636718 0-6.425782 5.207032-11.636719 11.636719-11.636719 6.425781 0 11.636719 5.210937 11.636719 11.636719zm0 0"/><path d="m209.453125 105.226562c0 6.425782-5.207031 11.636719-11.636719 11.636719-6.425781 0-11.632812-5.210937-11.632812-11.636719 0-6.425781 5.207031-11.636718 11.632812-11.636718 6.429688 0 11.636719 5.210937 11.636719 11.636718zm0 0"/><path d="m69.816406 105.226562c0 6.425782-5.207031 11.636719-11.632812 11.636719-6.429688 0-11.636719-5.210937-11.636719-11.636719 0-6.425781 5.207031-11.636718 11.636719-11.636718 6.425781 0 11.632812 5.210937 11.632812 11.636718zm0 0"/></g><path d="m116.363281 58.683594c0 6.425781-5.210937 11.632812-11.636719 11.632812-6.425781 0-11.636718-5.207031-11.636718-11.632812 0-6.429688 5.210937-11.636719 11.636718-11.636719 6.425782 0 11.636719 5.207031 11.636719 11.636719zm0 0" fill="#2c2f53"/><path d="m116.363281 151.773438c0 6.425781-5.210937 11.636718-11.636719 11.636718-6.425781 0-11.636718-5.210937-11.636718-11.636718 0-6.425782 5.210937-11.636719 11.636718-11.636719 6.425782 0 11.636719 5.210937 11.636719 11.636719zm0 0" fill="#38249c"/><path d="m162.910156 105.226562c0 6.425782-5.210937 11.636719-11.636718 11.636719-6.425782 0-11.636719-5.210937-11.636719-11.636719 0-6.425781 5.210937-11.636718 11.636719-11.636718 6.425781 0 11.636718 5.210937 11.636718 11.636718zm0 0" fill="#38249c"/><path d="m9.640625 177.042969 166.902344-166.902344c12.851562-12.855469 33.691406-12.855469 46.542969 0 12.855468 12.851563 12.855468 33.691406 0 46.542969l-166.902344 166.902344c-12.851563 12.855468-33.691406 12.855468-46.542969 0-12.855469-12.851563-12.855469-33.691407 0-46.542969zm0 0" fill="#999aac"/><path d="m48.957031 184.273438 62.585938-62.589844c6.425781-6.425782 16.847656-6.425782 23.273437 0 6.425782 6.425781 6.425782 16.847656 0 23.273437l-62.589844 62.585938c-6.425781 6.429687-16.84375 6.429687-23.269531 0-6.429687-6.425781-6.429687-16.84375 0-23.269531zm0 0" fill="#7c7f95"/><path d="m223.085938 56.683594c12.855468-12.851563 12.855468-33.691406 0-46.542969-12.851563-12.855469-33.691407-12.855469-46.542969 0l-69.820313 69.816406c12.855469-12.851562 33.695313-12.851562 46.546875 0 12.851563 12.855469 12.851563 33.691407 0 46.546875zm0 0" fill="#cacad4"/><path d="m167.730469 65.5 30.085937-30.089844c6.429688-6.425781 16.847656-6.425781 23.273438 0 6.425781 6.425782 6.425781 16.84375 0 23.273438l-30.089844 30.085937c-6.425781 6.429688-16.84375 6.429688-23.269531 0-6.429688-6.425781-6.429688-16.84375 0-23.269531zm0 0" fill="#999aac"/><path d="m488.726562 23.773438h-46.542968c-12.855469 0-23.273438 10.417968-23.273438 23.269531v.003906 69.816406c-25.707031 0-46.546875 20.839844-46.546875 46.546875 0 25.707032 20.839844 46.542969 46.546875 46.542969 25.707032 0 46.542969-20.835937 46.542969-46.542969v-93.09375h23.273437c12.855469 0 23.273438-10.417968 23.273438-23.269531 0-12.855469-10.417969-23.273437-23.273438-23.273437zm0 0" fill="#fa4659"/><path d="m418.910156 140.136719c0 12.851562-10.421875 23.273437-23.273437 23.273437-12.855469 0-23.273438-10.421875-23.273438-23.273437 0-12.855469 10.417969-23.273438 23.273438-23.273438 12.851562 0 23.273437 10.417969 23.273437 23.273438zm0 0" fill="#fdb8bf"/><path d="m46.546875 442.683594c0 12.851562-10.421875 23.269531-23.273437 23.269531-12.855469 0-23.273438-10.417969-23.273438-23.269531 0-12.855469 10.417969-23.273438 23.273438-23.273438 12.851562 0 23.273437 10.417969 23.273437 23.273438zm0 0" fill="#bcf4f5"/><path d="m162.910156 419.410156c0 12.851563-10.421875 23.273438-23.273437 23.273438-12.855469 0-23.273438-10.421875-23.273438-23.273438 0-12.855468 10.417969-23.273437 23.273438-23.273437 12.851562 0 23.273437 10.417969 23.273437 23.273437zm0 0" fill="#bcf4f5"/></svg>