<?xml version="1.0" encoding="iso-8859-1"?>
<!-- Generator: Adobe Illustrator 19.0.0, SVG Export Plug-In . SVG Version: 6.00 Build 0)  -->
<svg version="1.1" id="Capa_1" xmlns="http://www.w3.org/2000/svg" xmlns:xlink="http://www.w3.org/1999/xlink" x="0px" y="0px"
	 viewBox="0 0 480 480" style="enable-background:new 0 0 480 480;" xml:space="preserve">
<linearGradient id="SVGID_1_" gradientUnits="userSpaceOnUse" x1="-56.875" y1="555.724" x2="-56.875" y2="619.704" gradientTransform="matrix(8 0 0 -8 623 4941)">
	<stop  offset="0" style="stop-color:#006DF0"/>
	<stop  offset="1" style="stop-color:#00E7F0"/>
</linearGradient>
<path style="fill:url(#SVGID_1_);" d="M304,400.136c-4.418,0-8,3.582-8,8V416H40V64h256v87.36c0,4.418,3.582,8,8,8s8-3.582,8-8V40
	c-0.026-22.08-17.92-39.974-40-40H64C41.92,0.026,24.026,17.92,24,40v400c0.026,22.08,17.92,39.974,40,40h208
	c22.08-0.026,39.974-17.92,40-40v-31.864C312,403.718,308.418,400.136,304,400.136z M64,16h208c13.255,0,24,10.745,24,24v8H40v-8
	C40,26.745,50.745,16,64,16z M272,464H64c-13.255,0-24-10.745-24-24v-8h256v8C296,453.255,285.255,464,272,464z"/>
<linearGradient id="SVGID_2_" gradientUnits="userSpaceOnUse" x1="-54.875" y1="555.724" x2="-54.875" y2="619.704" gradientTransform="matrix(8 0 0 -8 623 4941)">
	<stop  offset="0" style="stop-color:#006DF0"/>
	<stop  offset="1" style="stop-color:#00E7F0"/>
</linearGradient>
<path style="fill:url(#SVGID_2_);" d="M176,40h16c4.418,0,8-3.582,8-8s-3.582-8-8-8h-16c-4.418,0-8,3.582-8,8S171.582,40,176,40z"/>
<linearGradient id="SVGID_3_" gradientUnits="userSpaceOnUse" x1="-56.875" y1="555.724" x2="-56.875" y2="619.704" gradientTransform="matrix(8 0 0 -8 623 4941)">
	<stop  offset="0" style="stop-color:#006DF0"/>
	<stop  offset="1" style="stop-color:#00E7F0"/>
</linearGradient>
<path style="fill:url(#SVGID_3_);" d="M184,440h-32c-4.418,0-8,3.582-8,8s3.582,8,8,8h32c4.418,0,8-3.582,8-8S188.418,440,184,440z"
	/>
<g>
	
		<linearGradient id="SVGID_4_" gradientUnits="userSpaceOnUse" x1="-59.375" y1="555.724" x2="-59.375" y2="619.704" gradientTransform="matrix(8 0 0 -8 623 4941)">
		<stop  offset="0" style="stop-color:#006DF0"/>
		<stop  offset="1" style="stop-color:#00E7F0"/>
	</linearGradient>
	<path style="fill:url(#SVGID_4_);" d="M144,40h8c4.418,0,8-3.582,8-8s-3.582-8-8-8h-8c-4.418,0-8,3.582-8,8S139.582,40,144,40z"/>
	
		<linearGradient id="SVGID_5_" gradientUnits="userSpaceOnUse" x1="-68.375" y1="555.724" x2="-68.375" y2="619.704" gradientTransform="matrix(8 0 0 -8 623 4941)">
		<stop  offset="0" style="stop-color:#006DF0"/>
		<stop  offset="1" style="stop-color:#00E7F0"/>
	</linearGradient>
	<path style="fill:url(#SVGID_5_);" d="M96,96V80H56v40h16V96H96z"/>
	
		<linearGradient id="SVGID_6_" gradientUnits="userSpaceOnUse" x1="-68.375" y1="555.724" x2="-68.375" y2="619.704" gradientTransform="matrix(8 0 0 -8 623 4941)">
		<stop  offset="0" style="stop-color:#006DF0"/>
		<stop  offset="1" style="stop-color:#00E7F0"/>
	</linearGradient>
	<path style="fill:url(#SVGID_6_);" d="M56,360v40h40v-16H72v-24H56z"/>
	
		<linearGradient id="SVGID_7_" gradientUnits="userSpaceOnUse" x1="-32.875" y1="555.724" x2="-32.875" y2="619.704" gradientTransform="matrix(8 0 0 -8 623 4941)">
		<stop  offset="0" style="stop-color:#006DF0"/>
		<stop  offset="1" style="stop-color:#00E7F0"/>
	</linearGradient>
	<path style="fill:url(#SVGID_7_);" d="M440,368V208h-48v160h-8V256h-48v112h-8v-64h-48v64h-16v16h192v-16H440z M296,368v-48h16v48
		H296z M352,368v-96h16v96H352z M408,368V224h16v144H408z"/>
	
		<linearGradient id="SVGID_8_" gradientUnits="userSpaceOnUse" x1="-34.7285" y1="555.724" x2="-34.7285" y2="619.704" gradientTransform="matrix(8 0 0 -8 623 4941)">
		<stop  offset="0" style="stop-color:#006DF0"/>
		<stop  offset="1" style="stop-color:#00E7F0"/>
	</linearGradient>
	<path style="fill:url(#SVGID_8_);" d="M266.344,258.344l11.312,11.312L408,139.312V168h16v-56h-56v16h28.688L266.344,258.344z"/>
	
		<linearGradient id="SVGID_9_" gradientUnits="userSpaceOnUse" x1="-58.875" y1="555.724" x2="-58.875" y2="619.704" gradientTransform="matrix(8 0 0 -8 623 4941)">
		<stop  offset="0" style="stop-color:#006DF0"/>
		<stop  offset="1" style="stop-color:#00E7F0"/>
	</linearGradient>
	<path style="fill:url(#SVGID_9_);" d="M160,312v-17.136c17.081-4.396,27.364-21.807,22.968-38.888
		C179.332,241.849,166.587,231.982,152,232c-8.837,0-16-7.163-16-16s7.163-16,16-16s16,7.163,16,16h16
		c-0.055-14.547-9.915-27.227-24-30.864V168h-16v17.136c-17.081,4.396-27.364,21.807-22.968,38.888
		C124.668,238.151,137.413,248.018,152,248c8.837,0,16,7.163,16,16s-7.163,16-16,16s-16-7.163-16-16h-16
		c0.055,14.547,9.915,27.227,24,30.864V312H160z"/>
	
		<linearGradient id="SVGID_10_" gradientUnits="userSpaceOnUse" x1="-58.875" y1="555.724" x2="-58.875" y2="619.704" gradientTransform="matrix(8 0 0 -8 623 4941)">
		<stop  offset="0" style="stop-color:#006DF0"/>
		<stop  offset="1" style="stop-color:#00E7F0"/>
	</linearGradient>
	<path style="fill:url(#SVGID_10_);" d="M248,240c0-53.019-42.981-96-96-96s-96,42.981-96,96s42.981,96,96,96
		C204.996,335.943,247.943,292.996,248,240z M72,240c0-44.183,35.817-80,80-80s80,35.817,80,80s-35.817,80-80,80
		C107.837,319.952,72.049,284.163,72,240z"/>
</g>
<g>
</g>
<g>
</g>
<g>
</g>
<g>
</g>
<g>
</g>
<g>
</g>
<g>
</g>
<g>
</g>
<g>
</g>
<g>
</g>
<g>
</g>
<g>
</g>
<g>
</g>
<g>
</g>
<g>
</g>
</svg>
