<svg height="512pt" viewBox="0 -23 512 512" width="512pt" xmlns="http://www.w3.org/2000/svg"><path d="m5 5h373.546875v456.886719h-373.546875zm0 0" fill="#e6e6e6"/><path d="m378.546875 106.894531-354.988281 354.992188h354.988281zm0 0" fill="#bdbdbd"/><path d="m378.546875 461.886719v-160.992188l-160.988281 160.992188zm0 0" fill="#757575"/><path d="m445.675781 99.292969h61.324219v268.300781h-61.324219zm0 0" fill="#64b5f6"/><path d="m445.675781 233.769531v133.824219h61.324219v-195.152344zm0 0" fill="#42a5f5"/><path d="m445.675781 367.59375h61.324219v51.742188h-61.324219zm0 0" fill="#546e7a"/><path d="m445.675781 51.996094h61.324219v47.296875h-61.324219zm0 0" fill="#78909c"/><g fill="#424242"><path d="m378.546875 0h-373.546875c-2.761719 0-5 2.238281-5 5v456.886719c0 2.761719 2.238281 5 5 5h373.546875c2.761719 0 5-2.238281 5-5v-456.886719c0-2.761719-2.238281-5-5-5zm-5 456.886719h-363.546875v-446.886719h363.546875zm0 0"/><path d="m79.6875 104.292969h224.171875c2.761719 0 5-2.238281 5-5s-2.238281-5-5-5h-224.171875c-2.761719 0-5 2.238281-5 5s2.238281 5 5 5zm0 0"/><path d="m79.6875 157.953125h50.734375c2.761719 0 5-2.238281 5-5s-2.238281-5-5-5h-50.734375c-2.761719 0-5 2.238281-5 5s2.238281 5 5 5zm0 0"/><path d="m79.6875 211.613281h224.171875c2.761719 0 5-2.238281 5-5s-2.238281-5-5-5h-224.171875c-2.761719 0-5 2.238281-5 5s2.238281 5 5 5zm0 0"/><path d="m79.6875 265.273438h152.300781c2.761719 0 5-2.238282 5-5 0-2.761719-2.238281-5-5-5h-152.300781c-2.761719 0-5 2.238281-5 5 0 2.761718 2.238281 5 5 5zm0 0"/><path d="m79.6875 318.933594h224.171875c2.761719 0 5-2.238282 5-5 0-2.761719-2.238281-5-5-5h-224.171875c-2.761719 0-5 2.238281-5 5 0 2.761718 2.238281 5 5 5zm0 0"/><path d="m79.6875 372.59375h152.300781c2.761719 0 5-2.238281 5-5s-2.238281-5-5-5h-152.300781c-2.761719 0-5 2.238281-5 5s2.238281 5 5 5zm0 0"/><path d="m180.25 147.953125c-2.761719 0-5 2.238281-5 5s2.238281 5 5 5h127.441406c2.761719 0 5-2.238281 5-5s-2.238281-5-5-5zm0 0"/><path d="m307.691406 255.273438h-31.621094c-2.761718 0-5 2.238281-5 5 0 2.761718 2.238282 5 5 5h31.621094c2.761719 0 5-2.238282 5-5 0-2.761719-2.238281-5-5-5zm0 0"/></g><path d="m507 94.292969h-61.324219c-2.761719 0-5 2.238281-5 5v268.300781c0 2.761719 2.238281 5 5 5h61.324219c2.761719 0 5-2.238281 5-5v-268.300781c0-2.761719-2.238281-5-5-5zm-5 268.300781h-51.324219v-258.300781h51.324219zm0 0" fill="#177ce0"/><path d="m507 362.59375h-61.324219c-2.761719 0-5 2.238281-5 5v51.742188c0 2.761718 2.238281 5 5 5h25.660157v37.550781c0 2.761719 2.238281 5 5 5 2.761718 0 5-2.238281 5-5v-37.550781h25.664062c2.761719 0 5-2.238282 5-5v-51.742188c0-2.761719-2.238281-5-5-5zm-5 51.742188h-51.324219v-41.742188h51.324219zm0 0" fill="#424242"/><path d="m507 46.996094h-61.324219c-2.761719 0-5 2.238281-5 5v47.300781c0 2.761719 2.238281 5 5 5h61.324219c2.761719 0 5-2.238281 5-5v-47.300781c0-2.761719-2.238281-5-5-5zm-5 47.300781h-51.324219v-37.300781h51.324219zm0 0" fill="#424242"/></svg>