<?xml version="1.0" encoding="UTF-8"?>
<!DOCTYPE svg PUBLIC "-//W3C//DTD SVG 1.1//EN" "http://www.w3.org/Graphics/SVG/1.1/DTD/svg11.dtd">
<!-- Creator: CorelDRAW 2017 -->
<svg xmlns="http://www.w3.org/2000/svg" xml:space="preserve" width="210mm" height="297mm" version="1.1" style="shape-rendering:geometricPrecision; text-rendering:geometricPrecision; image-rendering:optimizeQuality; fill-rule:evenodd; clip-rule:evenodd"
viewBox="0 0 21000 29700"
 xmlns:xlink="http://www.w3.org/1999/xlink">
 <defs>
  <style type="text/css">
   <![CDATA[
    .str1 {stroke:#7F3589;stroke-width:8.91;stroke-miterlimit:22.9256}
    .str0 {stroke:#7F3589;stroke-width:8.91;stroke-miterlimit:22.9256}
    .fil6 {fill:#EF7F1A}
    .fil5 {fill:#7F3589}
    .fil0 {fill:#009846}
    .fil2 {fill:#061FC2}
    .fil1 {fill:#304FFE}
    .fil4 {fill:#C72222}
    .fil3 {fill:#FFC107}
    .fil7 {fill:#7F3589;fill-rule:nonzero}
   ]]>
  </style>
 </defs>
 <g id="Layer_x0020_1">
  <metadata id="CorelCorpID_0Corel-Layer"/>
  <g id="_1827976494400">
   <path class="fil0" d="M7980.33 10667.66c42.58,-80.96 147.19,-77.23 74.62,57.55 -64.65,120.08 -121.25,31.17 -74.62,-57.55z"/>
   <path class="fil0" d="M7915.93 10891.13c-5.77,45.76 -61.24,104.97 -107.42,119.41 -64.66,20.2 -48.03,-61.85 -10.02,-102.65 33.29,-35.74 82.48,-53.23 117.44,-16.76z"/>
   <path class="fil0" d="M7944.1 11072.33c91.81,-45.8 148.19,-90.99 191.08,-195.95 11.99,-29.34 10.2,-61.68 20.53,-81.96 111.95,105.83 -122.19,368.41 -211.61,277.91z"/>
   <path class="fil0" d="M8397.15 10196.15c-49.17,165.53 -159.43,245.3 -282.26,296.71 -14.03,-14.67 -16.29,-17.79 -32.97,-31.69 -7.48,-6.23 -46.89,-17.76 -53.78,-21.82 109.51,-39.81 241.95,-109.82 281.75,-274.02 3.97,-25.4 27.76,-42.75 53.13,-38.78 24.25,3.79 41.18,25.69 39.16,49.76 17.86,4.68 33.81,13.75 52.41,29.24 223.19,186.03 229.92,434.78 151.17,673.31 -65.28,197.74 -140.42,252.61 -296.71,194.01 12.22,-39.7 5.99,-56.49 11.76,-82.5 184.63,74.82 283.01,5.34 300.01,-327.89 6.52,-127.75 -86.55,-370.42 -223.67,-466.33z"/>
   <path class="fil0" d="M7926.52 10460.75c1.55,251.2 -195.47,349.28 -344.96,453.37 55.7,227.12 797.77,456.77 655.6,-114.61 -27.45,-110.33 -169.28,-292.63 -310.64,-338.76zm-0.84 -18.17c16.38,-0.65 32.29,2.95 52.1,11.33 237.84,100.53 307.82,310.3 302.46,533.48 -7.14,297.35 -379.43,258.47 -539.29,156.77 -571.43,-363.54 128,-256.8 103.4,-687.08 -3.18,-22.61 12.57,-43.51 35.17,-46.69 21.59,-3.05 41.65,11.2 46.16,32.19z"/>
   <path class="fil0" d="M8140.03 10562.81c37.39,-26.98 118.53,-26.78 160.59,-2.86 58.87,33.51 -12.48,77.31 -68.24,77.33 -48.86,0.03 -95.19,-24.03 -92.35,-74.47z"/>
   <path class="fil0" d="M8501.47 10419.05c-45.24,8.96 -100.41,68.46 -111.58,115.54 -15.61,65.91 65.07,43.57 103.1,2.79 33.32,-35.73 47.31,-86.02 8.48,-118.33z"/>
   <path class="fil0" d="M8571.83 10802.66c-91.07,-13.9 -155.82,-9.93 -241.61,44.89 -23.99,15.32 -39.41,39.98 -57.48,49.51 -27.37,-135.6 280.32,-207.07 299.09,-94.4z"/>
  </g>
  <g id="_1827976492000">
   <path class="fil1" d="M9235.27 9370.35c53.34,16.53 83.18,73.18 66.65,126.52 -16.53,53.34 -73.18,83.18 -126.52,66.64 -53.34,-16.53 -83.18,-73.18 -66.64,-126.52 16.53,-53.34 73.17,-83.17 126.51,-66.64z"/>
   <path class="fil1" d="M9226.91 9653.95c106.92,-22.3 257.12,-255.78 272.84,-265.93 11.27,76.75 -157.39,294.48 -264.66,325.71 -16.51,2.26 -31.72,-9.3 -33.98,-25.8 -2.26,-16.51 9.29,-31.72 25.8,-33.98z"/>
   <path class="fil1" d="M9230.98 9987.45c-41.8,27.36 -143.44,102.41 -170.83,149.6 5.97,37.8 48.73,296.56 45.83,305.46 -41.17,-44.58 -35.2,-73.42 -58.75,-158.47 -56.9,-205.49 -23.7,-227.99 161.95,-356.1 16.44,-6.02 34.63,2.42 40.65,18.86 6.02,16.43 -2.42,34.63 -18.85,40.65z"/>
   <path class="fil1" d="M9233.34 9901.22c152.85,-45.44 266.31,518.07 252.15,582.09 -64.87,-101.56 -98.24,-450.69 -240.04,-521.33 -12.04,-0.21 -23.42,-7.3 -28.53,-19.06 -6.98,-16.05 0.37,-34.72 16.42,-41.7z"/>
   <path class="fil1" d="M9162.21 9627.25c-106.11,6.91 -325.69,-182.03 -334.27,-182.83 25.61,84.79 229.78,241.18 342.45,242.6 16.51,-2.26 28.06,-17.47 25.8,-33.98 -2.26,-16.5 -17.48,-28.05 -33.98,-25.79z"/>
   <path class="fil1" d="M9184.71 9988.13c-28.14,-416.62 -35.09,-214.09 14.85,-607.75 41.83,375.37 19.32,190.29 67.3,555.26 14.49,22.68 12.85,29.46 -9.81,43.93 -22.66,14.49 -57.85,31.24 -72.34,8.56z"/>
  </g>
  <path class="fil2" d="M10306.06 9711.3c-231.12,-52.9 -133.69,303.17 -18.15,204.21 510.54,-437.31 -592.9,-712.82 -56.14,-730.26 399.89,-13 295.27,-526.5 544.89,379.13 195.75,710.16 -416.78,448.65 -207.67,138.81 82.75,-122.62 199.36,149.45 145.63,99.56 -77.27,-71.6 -86.39,-48.73 -107.2,-28.31 -49.22,48.31 -10.91,186.12 26.76,197.72 305.17,94.1 -8.42,-675.49 -89.33,-866.63 -130.47,151.88 -178.98,139.18 -374.91,145 161.96,175.46 443.85,298.52 289.07,565.01 -324.69,559 -586.31,-247.51 -128.15,-149.18 21.69,7.1 29.06,10.75 42.01,35.54 10.56,20.23 -45.12,16.5 -66.81,9.4z"/>
  <g id="_1827976490016">
   <path class="fil0" d="M8650.57 9925.16c20.41,13.33 26.14,40.68 12.81,61.09 -13.33,20.4 -40.68,26.14 -61.08,12.81 -20.41,-13.33 -26.14,-40.68 -12.81,-61.09 13.33,-20.4 40.67,-26.14 61.08,-12.81z"/>
   <path class="fil0" d="M8645.8 9803.79c20.4,13.33 26.14,40.68 12.81,61.08 -13.33,20.41 -40.68,26.14 -61.08,12.81 -20.41,-13.33 -26.15,-40.67 -12.81,-61.08 13.33,-20.41 40.67,-26.14 61.08,-12.81z"/>
   <path class="fil0" d="M8751.66 9872.94c20.4,13.33 26.14,40.68 12.81,61.09 -13.33,20.4 -40.68,26.14 -61.08,12.81 -20.41,-13.33 -26.15,-40.68 -12.82,-61.09 13.34,-20.4 40.68,-26.14 61.09,-12.81z"/>
  </g>
  <g id="_1827976490784">
   <polygon class="fil3" points="7797.35,11409.21 7793.43,11480.42 7789.5,11551.63 7729.79,11512.63 7670.08,11473.62 7733.72,11441.41 "/>
   <polygon class="fil3" points="7964.95,11437.54 7961.02,11508.75 7957.1,11579.97 7897.39,11540.96 7837.68,11501.96 7901.32,11469.75 "/>
   <polygon class="fil3" points="7870.27,11571.18 7866.34,11642.4 7862.42,11713.61 7802.71,11674.61 7743,11635.6 7806.64,11603.39 "/>
  </g>
  <path class="fil4" d="M8055.04 15806.26c456.51,438.61 1303.42,1085.34 1985.02,903.64 -56.27,-80.18 -546.08,-185.18 -1005.8,-433.73 -347.25,-187.76 -671.08,-512.98 -813.48,-656.83 -51.63,-45.77 -130.56,-41.06 -176.33,10.59 -45.76,51.66 -41.04,130.56 10.59,176.33z"/>
  <path class="fil5" d="M12782.85 10041.95c519.31,362.05 1319,1066.34 1273.92,1770.3 -89.63,-39.52 -288.27,-499.4 -621.82,-901.72 -251.97,-303.89 -634.17,-557.97 -803.06,-669.53 -54.98,-41.69 -65.77,-120.03 -24.05,-175 41.73,-54.97 120.03,-65.75 175.01,-24.05z"/>
  <g id="_1827976489120">
   <polygon class="fil1" points="9681.76,9703.62 9678.19,9768.42 9674.62,9833.23 9620.28,9797.73 9565.95,9762.24 9623.86,9732.93 "/>
   <polygon class="fil1" points="9834.28,9729.4 9830.7,9794.2 9827.13,9859.01 9772.8,9823.51 9718.46,9788.02 9776.37,9758.71 "/>
   <polygon class="fil1" points="9748.12,9851.02 9744.55,9915.82 9740.97,9980.63 9686.64,9945.13 9632.3,9909.64 9690.21,9880.33 "/>
  </g>
  <g id="_1827976485216">
   <path class="fil2" d="M11118.64 9546.3c20.4,13.33 26.14,40.67 12.81,61.08 -13.33,20.41 -40.68,26.14 -61.08,12.81 -20.41,-13.33 -26.15,-40.68 -12.82,-61.08 13.33,-20.41 40.68,-26.14 61.09,-12.81z"/>
   <path class="fil2" d="M11113.87 9424.92c20.4,13.33 26.14,40.68 12.81,61.09 -13.33,20.4 -40.68,26.14 -61.09,12.81 -20.4,-13.33 -26.14,-40.68 -12.81,-61.09 13.33,-20.4 40.68,-26.14 61.09,-12.81z"/>
   <path class="fil2" d="M11219.73 9494.08c20.4,13.33 26.14,40.67 12.81,61.08 -13.33,20.41 -40.68,26.14 -61.09,12.81 -20.4,-13.33 -26.14,-40.68 -12.81,-61.08 13.33,-20.41 40.68,-26.14 61.09,-12.81z"/>
  </g>
  <g id="_1827976483232">
   <g>
    <path class="fil3" d="M7333.18 11644.84c-236.47,1.19 -427.21,193.87 -426.02,430.34 1.19,236.47 193.87,427.21 430.34,426.01 236.47,-1.19 427.21,-193.86 426.02,-430.34 -1.2,-236.47 -193.87,-427.2 -430.34,-426.01zm0.35 69.4c-198.15,1 -357.97,162.44 -356.97,360.59 1,198.14 162.45,357.96 360.59,356.96 198.14,-1 357.97,-162.44 356.97,-360.59 -1,-198.14 -162.45,-357.96 -360.59,-356.96z"/>
    <g>
     <path class="fil3" d="M7471.93 12002.89c-38.35,0.19 -69.28,31.43 -69.08,69.78 0.19,38.36 31.43,69.28 69.78,69.09 38.35,-0.19 69.28,-31.44 69.09,-69.79 -0.2,-38.35 -31.44,-69.27 -69.79,-69.08z"/>
     <path class="fil3" d="M7198.04 12004.27c-38.35,0.2 -69.27,31.44 -69.08,69.79 0.19,38.35 31.43,69.27 69.78,69.08 38.36,-0.19 69.28,-31.43 69.09,-69.78 -0.19,-38.35 -31.44,-69.28 -69.79,-69.09z"/>
    </g>
    <polygon class="fil3" points="7369.95,11453.77 7290.84,11454.17 7292,11683.69 7371.1,11683.29 "/>
    <path class="fil3" d="M7329.83 11343.07c-54.31,0.28 -98.13,44.54 -97.86,98.86 0.27,54.32 44.54,98.14 98.86,97.86 54.32,-0.27 98.14,-44.54 97.86,-98.85 -0.27,-54.32 -44.54,-98.14 -98.86,-97.87z"/>
   </g>
   <polygon class="fil3" points="7837.8,11925.59 7723.19,11926.17 7724.77,12238.75 7839.38,12238.17 "/>
   <polygon class="fil3" points="6941.97,11930.11 6827.36,11930.69 6828.94,12243.27 6943.54,12242.69 "/>
  </g>
  <g id="_1827976484928">
   <path class="fil6" d="M7146.92 12796.55c20.41,13.33 26.14,40.68 12.81,61.08 -13.33,20.41 -40.68,26.15 -61.08,12.82 -20.41,-13.33 -26.14,-40.68 -12.81,-61.09 13.33,-20.4 40.67,-26.14 61.08,-12.81z"/>
   <path class="fil6" d="M7142.15 12675.18c20.4,13.33 26.14,40.67 12.81,61.08 -13.33,20.41 -40.68,26.14 -61.08,12.81 -20.41,-13.33 -26.15,-40.68 -12.81,-61.08 13.33,-20.41 40.67,-26.14 61.08,-12.81z"/>
   <path class="fil6" d="M7248.01 12744.33c20.4,13.33 26.14,40.68 12.81,61.08 -13.33,20.41 -40.68,26.14 -61.08,12.81 -20.41,-13.33 -26.15,-40.67 -12.82,-61.08 13.34,-20.41 40.68,-26.14 61.09,-12.81z"/>
  </g>
  <g id="_1827976540864">
   <path class="fil4" d="M7591.67 14319.83l97.84 176.89 96.4 198.82c58.22,95.21 -357.94,282.92 -405.67,208.55 -374.33,-583.35 -363.35,-405.11 168.75,-682.74 24.37,-17.56 58.35,-12.03 75.9,12.33 27.17,37.69 2.07,69.92 -33.22,86.15zm-56.9 -8.46c-108.64,49.69 -234,97.69 -330.88,148.77 73.88,120.53 177.82,267.69 234.78,390.84 98.54,-47.28 241.11,-97.29 301.15,-126.88 -198.93,-401.33 -136.12,-269.09 -205.05,-412.73z"/>
   <path class="fil4" d="M7916.27 14856c-70.81,35.06 -418.78,211.26 -499.76,252.06 9.34,118.91 38.17,145.09 26.52,235.18 233.87,-106.7 431,-202.37 659.01,-315.47 -44.51,-37.92 -131.84,-130.28 -185.77,-171.77zm68.43 6.82c72.68,36.77 124.79,99.32 170.96,152.61 42.27,48.81 -803.54,558.48 -804.36,388.7 -2.29,-473.02 -16.81,-328.98 548.79,-611.35 27.08,-12.97 59.56,-1.53 72.53,25.55 9.71,20.27 26.05,28.62 12.08,44.49z"/>
   <polygon class="fil4" points="7529.34,15216.74 7931.63,15024.04 7946.41,15054.91 7544.12,15247.6 "/>
   <polygon class="fil4" points="7495.82,15137.91 7529.35,15121.85 7542.73,15149.79 7509.2,15165.85 "/>
   <polygon class="fil4" points="7541.84,15115.86 7575.37,15099.8 7588.76,15127.75 7555.23,15143.81 "/>
   <polygon class="fil4" points="7587.87,15093.81 7621.4,15077.75 7634.79,15105.7 7601.26,15121.76 "/>
   <polygon class="fil4" points="7633.9,15071.77 7667.43,15055.71 7680.82,15083.65 7647.29,15099.71 "/>
   <polygon class="fil4" points="7679.93,15049.72 7713.46,15033.66 7726.84,15061.6 7693.31,15077.66 "/>
   <polygon class="fil4" points="7725.96,15027.67 7759.49,15011.61 7772.87,15039.56 7739.34,15055.62 "/>
   <polygon class="fil4" points="7771.98,15005.63 7805.51,14989.57 7818.9,15017.51 7785.37,15033.57 "/>
   <polygon class="fil4" points="7818.01,14983.58 7851.54,14967.52 7864.93,14995.46 7831.4,15011.52 "/>
   <polygon class="fil4" points="7864.04,14961.53 7897.57,14945.47 7910.95,14973.42 7877.43,14989.48 "/>
   <polygon class="fil4" points="7496.38,15182.12 7529.91,15166.06 7543.29,15194.01 7509.76,15210.07 "/>
   <polygon class="fil4" points="7542.4,15160.08 7575.93,15144.02 7589.32,15171.96 7555.79,15188.02 "/>
   <polygon class="fil4" points="7588.43,15138.03 7621.96,15121.97 7635.35,15149.91 7601.82,15165.97 "/>
   <polygon class="fil4" points="7634.46,15115.98 7667.99,15099.92 7681.37,15127.87 7647.84,15143.93 "/>
   <polygon class="fil4" points="7680.49,15093.94 7714.02,15077.88 7727.4,15105.82 7693.87,15121.88 "/>
   <polygon class="fil4" points="7726.52,15071.89 7760.05,15055.83 7773.43,15083.77 7739.9,15099.83 "/>
   <polygon class="fil4" points="7772.54,15049.84 7806.07,15033.78 7819.46,15061.72 7785.93,15077.79 "/>
   <polygon class="fil4" points="7818.57,15027.79 7852.1,15011.73 7865.49,15039.68 7831.96,15055.74 "/>
   <polygon class="fil4" points="7864.6,15005.75 7898.13,14989.69 7911.51,15017.63 7877.98,15033.69 "/>
  </g>
  <g id="_1827976541472">
   <polygon class="fil4" points="6892.15,13979.5 6888.22,14050.72 6884.29,14121.93 6824.59,14082.93 6764.88,14043.92 6828.51,14011.71 "/>
   <polygon class="fil4" points="7059.75,14007.84 7055.82,14079.05 7051.89,14150.27 6992.18,14111.26 6932.48,14072.26 6996.11,14040.05 "/>
   <polygon class="fil4" points="6965.07,14141.48 6961.14,14212.7 6957.21,14283.91 6897.5,14244.91 6837.8,14205.9 6901.43,14173.69 "/>
  </g>
  <g id="_1827976538848">
   <path class="fil6" d="M6520.62 13600.98c103.81,46.29 258.02,81.61 488.59,196.37 -729.25,-131.17 -646.56,-156.9 -248.17,-470.89 38.16,-23.81 75.12,-59.51 97.71,-15.06 3.24,6.41 -21.01,44.27 -73.52,83.5 -101.17,75.55 -199.87,172.07 -264.61,206.08z"/>
   <path class="fil6" d="M7637.43 13399.66c-103.82,-46.29 -258.03,-81.61 -488.59,-196.37 729.24,131.17 646.55,156.9 248.17,470.89 -38.16,23.81 -75.12,59.51 -97.71,15.05 -3.24,-6.4 21,-44.26 73.51,-83.49 101.17,-75.55 199.87,-172.07 264.62,-206.08z"/>
   <path class="fil6" d="M6970.03 13170.88c68.9,147.96 248.27,508.74 276.73,673.52 -49.55,-42.7 -283.19,-490.42 -338.69,-589.26 -19.79,-31.13 -21.96,-75.22 -4.85,-98.49 17.12,-23.27 47.02,-16.9 66.81,14.23z"/>
  </g>
  <g id="_1827976534272">
   <path class="fil5 str0" d="M12321.62 9994.75c-120.53,-191.64 -389.54,-276.31 -570.83,-481.99 -341.68,-387.67 -273.62,-310.95 -356.1,-744.14 35.11,418.31 31.77,408.27 333.85,762.92 173.29,203.42 446.19,319.13 553.88,495.62 5.09,9.37 55.2,38.06 64.58,32.99 9.37,-5.07 -20.29,-56.03 -25.38,-65.4z"/>
   <g>
    <path class="fil5 str1" d="M12156.94 9820.92c-15.18,-11.54 -30.3,-21.11 -45.33,-29.11l-0.52 -0.97 0.23 0.83c-182.2,-96.69 -351.26,43.86 -440.98,-115.21 118.37,7.27 -144.67,-181.08 -152.03,-187.82 4.26,-5.54 65.43,-71.81 -8.68,-47.95 -5.6,1.8 -10.89,5.12 -16.06,8.41 -13.96,-31.74 -68.62,-172.86 -88.25,-231.58 39.9,1.78 -17.21,-197.48 9.29,-289.91 45.16,50.14 192.28,112.64 207.6,156.82 -40.65,12.4 -147.83,-31.17 -81.78,14.91l-0.08 0.02 0.11 0c16.63,11.59 44.17,28.83 86.53,54.08 5.39,3.21 15.28,9.25 20.04,14.61 -20.22,96.87 212.13,215.51 248.05,264.53 -96.36,5.69 -149.37,-10.63 -6.97,35.06 120.23,38.62 -71.5,-13.68 89.63,136.13 29.22,27.17 60.16,59.13 85.67,94.51 -62.81,-99.78 -149.38,-165.47 -141.83,-184.2 40.92,-101.46 -7.62,-27.36 -93.11,-74.71 73.42,-5.05 165.87,51.1 -42.29,-117.29 -251.66,-203.61 7.22,-76.59 -208.51,-218.48 182.36,16.04 -37.13,-123.48 -105.11,-163.98 -57.1,-34.01 -39.04,-46.46 -51.99,-53.47 -70.37,-38.12 -35.18,224.26 -27.38,288.48 -77.67,-43.06 61.29,233.03 61.74,234.21 16.38,43.12 24.78,65.46 29.55,75.72 -4.74,25.71 34.18,43.66 68.02,65.13 23.61,14.98 64.68,60.64 89.98,89.72 -8.69,0.82 -15.45,5.52 -16.31,18.13 -12.74,186.5 384.78,99.42 503.56,190.71 7.55,7.52 19.75,7.49 27.27,-0.05 7.51,-7.55 7.49,-19.76 -0.06,-27.28zm-509.49 -654.67c0.07,-0.56 0.21,-1.15 0.41,-1.8 -0.16,0.6 -0.29,1.2 -0.41,1.8zm415.96 532.03c20.79,28.82 37.96,59.92 47.68,92.56 -2.91,-5.43 -6.59,-10.89 -8.27,-15.25 -10.7,-27.62 -24.38,-53.44 -39.41,-77.31z"/>
    <g>
     <path class="fil5" d="M12252.71 10140.89c-127.47,-73.51 -317.11,15.06 -381.78,-44.73 182.94,-18.18 296.9,-67.47 438.23,-3.29 17.85,10.71 19.68,30.14 4.09,43.4 -15.59,13.27 -42.69,15.33 -60.54,4.62z"/>
     <path id="1" class="fil7" d="M11870.49 10091.73l0.88 8.86 2.6 -7.7 5.96 4.81 6.66 4.08 7.35 3.41 8.01 2.77 8.67 2.18 9.27 1.64 9.86 1.13 10.39 0.68 10.89 0.26 11.34 -0.09 11.76 -0.37 12.15 -0.63 12.48 -0.82 12.8 -0.94 13.07 -1.02 13.3 -1.04 13.51 -1.01 13.67 -0.9 13.8 -0.75 13.91 -0.53 13.97 -0.28 13.99 0.05 14.01 0.45 13.95 0.89 13.89 1.39 13.78 1.94 13.65 2.57 13.47 3.25 13.26 4 13.03 4.79 12.72 5.66 12.41 6.57 -4.48 7.72 -11.85 -6.29 -12.18 -5.4 -12.49 -4.61 -12.76 -3.84 -13.01 -3.13 -13.23 -2.49 -13.4 -1.9 -13.55 -1.35 -13.65 -0.87 -13.73 -0.43 -13.77 -0.05 -13.77 0.26 -13.75 0.53 -13.68 0.75 -13.59 0.9 -13.45 0.99 -13.28 1.04 -13.09 1.02 -12.86 0.96 -12.58 0.82 -12.29 0.63 -11.96 0.39 -11.6 0.09 -11.21 -0.28 -10.79 -0.7 -10.34 -1.19 -9.87 -1.74 -9.35 -2.36 -8.81 -3.05 -8.23 -3.81 -7.58 -4.66 -6.88 -5.55 2.6 -7.7zm-2.6 7.7l-7.27 -6.72 9.87 -0.98 -2.6 7.7zm443.58 -10.38l-4.62 7.64 0.46 0.24 -13.02 -5.63 -12.87 -4.99 -12.75 -4.38 -12.62 -3.8 -12.54 -3.26 -12.48 -2.72 -12.41 -2.22 -12.38 -1.76 -12.38 -1.3 -12.37 -0.89 -12.4 -0.48 -12.44 -0.13 -12.51 0.22 -12.59 0.54 -12.68 0.83 -12.8 1.11 -12.94 1.34 -13.07 1.55 -13.26 1.74 -13.43 1.92 -13.65 2.05 -13.86 2.14 -14.1 2.24 -14.34 2.3 -14.63 2.33 -14.92 2.33 -15.21 2.31 -15.54 2.26 -15.89 2.19 -16.24 2.07 -16.61 1.96 -17.01 1.79 -0.88 -8.86 16.89 -1.79 16.53 -1.94 16.14 -2.07 15.81 -2.17 15.48 -2.26 15.17 -2.29 14.88 -2.33 14.61 -2.33 14.36 -2.3 14.12 -2.24 13.9 -2.16 13.69 -2.05 13.51 -1.92 13.36 -1.76 13.21 -1.57 13.08 -1.36 12.96 -1.11 12.88 -0.85 12.81 -0.54 12.73 -0.24 12.7 0.13 12.68 0.5 12.67 0.91 12.68 1.34 12.7 1.8 12.75 2.28 12.8 2.8 12.88 3.34 12.96 3.9 13.07 4.5 13.19 5.11 13.32 5.75 0.46 0.24zm-0.46 -0.24l0.25 0.11 0.21 0.13 -0.46 -0.24zm5.14 50.85l-5.8 -6.78 0 0 1.25 -1.12 1.14 -1.12 1.05 -1.15 0.95 -1.17 0.86 -1.18 0.76 -1.17 0.67 -1.2 0.6 -1.2 0.49 -1.19 0.41 -1.2 0.33 -1.2 0.24 -1.2 0.17 -1.21 0.09 -1.16 0 -1.2 -0.06 -1.19 -0.15 -1.15 -0.24 -1.18 -0.31 -1.18 -0.38 -1.14 -0.47 -1.16 -0.56 -1.14 -0.63 -1.13 -0.72 -1.11 -0.81 -1.1 -0.9 -1.08 -0.98 -1.07 -1.07 -1.03 -1.17 -1.01 -1.26 -0.98 -1.35 -0.96 -1.45 -0.91 4.62 -7.64 1.81 1.15 1.71 1.2 1.62 1.26 1.51 1.33 1.43 1.37 1.32 1.43 1.22 1.46 1.11 1.52 1.02 1.57 0.91 1.61 0.78 1.64 0.69 1.66 0.58 1.72 0.45 1.72 0.34 1.74 0.23 1.77 0.1 1.77 0 1.76 -0.13 1.8 -0.25 1.75 -0.36 1.76 -0.49 1.76 -0.59 1.72 -0.71 1.71 -0.82 1.68 -0.93 1.64 -1.04 1.63 -1.16 1.58 -1.25 1.53 -1.37 1.51 -1.48 1.46 -1.57 1.4 0 0zm-65.68 5.09l4.48 -7.72 0.07 0.04 1.52 0.87 1.57 0.8 1.62 0.74 1.66 0.66 1.72 0.62 1.73 0.54 1.77 0.47 1.82 0.42 1.83 0.35 1.85 0.28 1.87 0.21 1.89 0.15 1.9 0.09 1.91 0.01 1.91 -0.04 1.9 -0.11 1.9 -0.18 1.89 -0.24 1.86 -0.3 1.86 -0.37 1.83 -0.44 1.8 -0.49 1.78 -0.56 1.72 -0.62 1.7 -0.68 1.67 -0.74 1.61 -0.8 1.56 -0.85 1.51 -0.91 1.45 -0.96 1.39 -1.03 1.33 -1.08 5.8 6.78 -1.65 1.34 -1.73 1.27 -1.79 1.2 -1.85 1.11 -1.88 1.03 -1.95 0.96 -1.97 0.88 -2.02 0.82 -2.06 0.72 -2.08 0.66 -2.12 0.59 -2.15 0.5 -2.16 0.43 -2.18 0.36 -2.19 0.28 -2.2 0.2 -2.22 0.13 -2.21 0.06 -2.21 -0.03 -2.2 -0.09 -2.21 -0.17 -2.19 -0.25 -2.19 -0.34 -2.15 -0.41 -2.14 -0.48 -2.11 -0.57 -2.09 -0.66 -2.04 -0.72 -2.02 -0.82 -1.98 -0.9 -1.93 -0.98 -1.88 -1.07 0.07 0.04zm4.48 -7.72l0.09 0.05 -0.02 -0.01 -0.07 -0.04z"/>
    </g>
   </g>
  </g>
 </g>
</svg>
