<?xml version="1.0" encoding="UTF-8"?>
<!DOCTYPE svg PUBLIC "-//W3C//DTD SVG 1.1//EN" "http://www.w3.org/Graphics/SVG/1.1/DTD/svg11.dtd">
<!-- Creator: CorelDRAW 2017 -->
<svg xmlns="http://www.w3.org/2000/svg" xml:space="preserve" width="210mm" height="297mm" version="1.1" style="shape-rendering:geometricPrecision; text-rendering:geometricPrecision; image-rendering:optimizeQuality; fill-rule:evenodd; clip-rule:evenodd"
viewBox="0 0 21000 29700"
 xmlns:xlink="http://www.w3.org/1999/xlink">
 <defs>
  <style type="text/css">
   <![CDATA[
    .str0 {stroke:#7F3589;stroke-width:27.97;stroke-miterlimit:22.9256}
    .str1 {stroke:#7F3589;stroke-width:27.97;stroke-miterlimit:22.9256}
    .fil5 {fill:#EF7F1A}
    .fil6 {fill:#7F3589}
    .fil0 {fill:#009846}
    .fil2 {fill:#061FC2}
    .fil1 {fill:#304FFE}
    .fil4 {fill:#C72222}
    .fil3 {fill:#FFC107}
    .fil7 {fill:#7F3589;fill-rule:nonzero}
   ]]>
  </style>
 </defs>
 <g id="Layer_x0020_1">
  <metadata id="CorelCorpID_0Corel-Layer"/>
  <g id="_1863995795824">
   <path class="fil0" d="M28847.87 11897.29c133.63,-254.1 461.96,-242.4 234.19,180.62 -202.9,376.9 -380.57,97.84 -234.19,-180.62z"/>
   <path class="fil0" d="M28645.74 12598.7c-18.11,143.61 -192.23,329.44 -337.18,374.78 -202.92,63.41 -150.74,-194.13 -31.44,-322.18 104.51,-112.2 258.89,-167.06 368.62,-52.6z"/>
   <path class="fil0" d="M28734.16 13167.42c288.14,-143.77 465.11,-285.6 599.71,-615.02 37.65,-92.1 32.02,-193.6 64.44,-257.24 351.37,332.17 -383.52,1156.29 -664.15,872.26z"/>
   <path class="fil0" d="M30156.13 10417.39c-154.33,519.54 -500.41,769.92 -885.92,931.28 -44.05,-46.05 -51.15,-55.86 -103.5,-99.48 -23.47,-19.54 -147.17,-55.74 -168.79,-68.48 343.7,-124.96 759.38,-344.68 884.32,-860.07 12.45,-79.71 87.12,-134.15 166.76,-121.71 76.1,11.9 129.26,80.63 122.9,156.17 56.05,14.72 106.11,43.16 164.5,91.79 700.52,583.87 721.64,1364.64 474.48,2113.3 -204.91,620.62 -440.73,792.86 -931.28,608.93 38.35,-124.6 18.8,-177.3 36.9,-258.94 579.49,234.83 888.29,16.77 941.65,-1029.15 20.45,-400.96 -271.65,-1162.62 -702.02,-1463.64z"/>
   <path class="fil0" d="M28678.95 11247.88c4.87,788.43 -613.5,1096.26 -1082.7,1422.97 174.82,712.84 2503.93,1433.64 2057.7,-359.74 -86.14,-346.26 -531.3,-918.46 -975,-1063.23zm-2.62 -57.04c51.41,-2.03 101.34,9.28 163.53,35.55 746.49,315.55 966.14,973.95 949.32,1674.43 -22.42,933.29 -1190.89,811.25 -1692.65,492.03 -1793.53,-1141.01 401.75,-806 324.54,-2156.5 -9.99,-70.95 39.44,-136.56 110.38,-146.55 67.78,-9.55 130.73,35.16 144.88,101.04z"/>
   <path class="fil0" d="M29349.09 11568.21c117.38,-84.68 372.04,-84.07 504.05,-8.97 184.76,105.17 -39.18,242.64 -214.19,242.71 -153.33,0.08 -298.75,-75.42 -289.86,-233.74z"/>
   <path class="fil0" d="M30483.53 11116.98c-141.98,28.15 -315.14,214.87 -350.2,362.65 -49.01,206.87 204.24,136.75 323.59,8.76 104.59,-112.13 148.49,-269.99 26.61,-371.41z"/>
   <path class="fil0" d="M30704.39 12321.02c-285.84,-43.64 -489.09,-31.17 -758.36,140.88 -75.29,48.08 -123.69,125.48 -180.41,155.39 -85.9,-425.58 879.86,-649.92 938.77,-296.27z"/>
  </g>
  <g id="_1863995805936">
   <circle class="fil1" transform="matrix(3.52529 1.09269 -1.09269 3.52529 32692.7 8128.62)" r="85.99"/>
   <path class="fil1" d="M32760.44 8715.6c335.59,-69.99 807.03,-802.82 856.35,-834.65 35.38,240.9 -493.97,924.26 -830.67,1022.27 -51.8,7.09 -99.56,-29.16 -106.65,-80.97 -7.09,-51.8 29.17,-99.56 80.97,-106.65z"/>
   <path class="fil1" d="M32773.21 9762.34c-131.18,85.88 -450.21,321.44 -536.17,469.56 18.75,118.63 152.95,930.81 143.86,958.74 -129.24,-139.95 -110.49,-230.46 -184.41,-497.39 -178.58,-644.96 -74.4,-715.58 508.32,-1117.68 51.58,-18.89 108.69,7.59 127.59,59.18 18.89,51.59 -7.6,108.7 -59.19,127.59z"/>
   <path class="fil1" d="M32780.64 9491.7c479.75,-142.63 835.86,1626.05 791.4,1826.98 -203.62,-318.76 -308.34,-1414.55 -753.41,-1636.29 -37.77,-0.65 -73.49,-22.9 -89.53,-59.8 -21.91,-50.39 1.16,-108.98 51.54,-130.89z"/>
   <path class="fil1" d="M32557.37 8631.79c-333.04,21.69 -1022.23,-571.31 -1049.14,-573.82 80.37,266.12 721.19,756.97 1074.83,761.44 51.8,-7.09 88.06,-54.84 80.97,-106.65 -7.1,-51.8 -54.85,-88.06 -106.66,-80.97z"/>
   <path class="fil1" d="M32628 9764.49c-88.33,-1307.62 -110.14,-671.98 46.59,-1907.52 131.32,1178.16 60.64,597.24 211.24,1742.78 45.49,71.18 40.34,92.43 -30.77,137.87 -71.15,45.49 -181.57,98.05 -227.06,26.87z"/>
  </g>
  <path class="fil2" d="M36147.53 8895.61c-725.42,-166.03 -419.61,951.55 -56.96,640.94 1602.4,-1372.57 -1860.92,-2237.28 -176.2,-2292.03 1255.13,-40.81 926.74,-1652.5 1710.23,1189.96 614.37,2228.95 -1308.16,1408.17 -651.83,435.67 259.72,-384.85 625.73,469.06 457.09,312.48 -242.51,-224.72 -271.13,-152.94 -336.45,-88.85 -154.5,151.62 -34.25,584.16 83.97,620.59 957.85,295.32 -26.4,-2120.15 -280.38,-2720.06 -409.48,476.69 -561.76,436.83 -1176.7,455.11 508.34,550.71 1393.1,936.94 907.28,1773.37 -1019.06,1754.5 -1840.22,-776.87 -402.19,-468.24 68.07,22.28 91.18,33.74 131.83,111.54 33.16,63.5 -141.62,51.79 -209.69,29.52z"/>
  <g id="_1863999010576">
   <g>
    <path class="fil3" d="M26816.67 14964.33c-742.2,3.74 -1340.87,608.48 -1337.12,1350.68 3.75,742.2 608.48,1340.86 1350.68,1337.12 742.21,-3.75 1340.87,-608.48 1337.12,-1350.68 -3.74,-742.21 -608.48,-1340.87 -1350.68,-1337.12zm1.1 217.82c-621.91,3.14 -1123.54,509.85 -1120.4,1131.76 3.14,621.91 509.86,1123.54 1131.76,1120.4 621.91,-3.14 1123.54,-509.86 1120.4,-1131.77 -3.14,-621.9 -509.86,-1123.53 -1131.76,-1120.39z"/>
    <g>
     <circle class="fil3" transform="matrix(-3.66086 0.0184757 0.0184757 3.66086 27253.3 16306.1)" r="59.53"/>
     <circle class="fil3" transform="matrix(-3.66086 0.0184757 0.0184757 3.66086 26393.6 16310.4)" r="59.53"/>
    </g>
    <rect class="fil3" transform="matrix(-6.00579 0.0303102 0.0118843 2.35481 26932.1 14364.6)" width="41.34" height="305.92"/>
    <circle class="fil3" transform="matrix(-3.66086 0.0184757 0.0184757 3.66086 26807.7 14325.9)" r="84.33"/>
   </g>
   <rect class="fil3" transform="matrix(-7.67619 0.0387405 0.0387403 7.67619 28400.5 15845.5)" width="46.86" height="127.81"/>
   <rect class="fil3" transform="matrix(-7.67619 0.0387405 0.0387403 7.67619 25588.8 15859.7)" width="46.86" height="127.81"/>
  </g>
  <g id="_1827776448096">
   <path class="fil4" d="M28322.18 23449.29l39.3 633.25 5.74 693.49c36.92,348.32 -1395.7,320.4 -1430.93,45.31 -276.21,-2157.9 -484.97,-1637.74 1397.44,-1708.72 92.71,-16.99 181.62,44.42 198.6,137.13 26.31,143.43 -88.26,201.04 -210.15,199.54zm-149.96 -100.58c-374.9,-5.32 -794.96,-37.94 -1138.4,-23.53 47.23,441.19 143.88,998.37 139.63,1424.2 343.03,-1.43 814.57,48.66 1024.65,45.6 -23.86,-1405.7 -23.78,-946.2 -25.88,-1446.27z"/>
   <path class="fil4" d="M28520.87 25406.46c-247.96,4.09 -1471.77,35.33 -1756.28,42.02 -133.57,349.72 -87.08,462.76 -241.36,702.54 806.74,12.24 1494.45,6.29 2293.17,-7.47 -75.17,-167.45 -198.47,-546.87 -295.53,-737.09zm184.85 111.43c156.59,202.1 220.13,449.6 279.33,662.83 54.16,195.3 -3030.06,501.98 -2803.88,19.47 630.18,-1344.28 395.15,-955.41 2378.91,-994.77 94.25,-0.33 170.93,75.82 171.26,170.07 0.25,70.55 35.35,116.21 -25.62,142.4z"/>
   <rect class="fil4" transform="matrix(4.16018 -0.0145275 0.0156421 4.47938 26938.2 25908.5)" width="336.53" height="23.98"/>
   <rect class="fil4" transform="matrix(4.47938 -0.0156421 0.0156421 4.47938 26949.2 25639.8)" width="26.05" height="21.71"/>
   <rect class="fil4" transform="matrix(4.47938 -0.0156421 0.0156421 4.47938 27109.4 25639.3)" width="26.05" height="21.71"/>
   <rect class="fil4" transform="matrix(4.47938 -0.0156421 0.0156421 4.47938 27269.6 25638.7)" width="26.05" height="21.71"/>
   <rect class="fil4" transform="matrix(4.47938 -0.0156421 0.0156421 4.47938 27429.8 25638.2)" width="26.05" height="21.71"/>
   <rect class="fil4" transform="matrix(4.47938 -0.0156421 0.0156421 4.47938 27590 25637.6)" width="26.05" height="21.71"/>
   <rect class="fil4" transform="matrix(4.47938 -0.0156421 0.0156421 4.47938 27750.2 25637)" width="26.05" height="21.71"/>
   <rect class="fil4" transform="matrix(4.47938 -0.0156421 0.0156421 4.47938 27910.3 25636.5)" width="26.05" height="21.71"/>
   <rect class="fil4" transform="matrix(4.47938 -0.0156421 0.0156421 4.47938 28070.5 25635.9)" width="26.05" height="21.71"/>
   <rect class="fil4" transform="matrix(4.47938 -0.0156421 0.0156421 4.47938 28230.7 25635.4)" width="26.05" height="21.71"/>
   <rect class="fil4" transform="matrix(4.47938 -0.0156421 0.0156421 4.47938 26891.3 25766)" width="26.05" height="21.71"/>
   <rect class="fil4" transform="matrix(4.47938 -0.0156421 0.0156421 4.47938 27051.5 25765.4)" width="26.05" height="21.71"/>
   <rect class="fil4" transform="matrix(4.47938 -0.0156421 0.0156421 4.47938 27211.7 25764.8)" width="26.05" height="21.71"/>
   <rect class="fil4" transform="matrix(4.47938 -0.0156421 0.0156421 4.47938 27371.9 25764.3)" width="26.05" height="21.71"/>
   <rect class="fil4" transform="matrix(4.47938 -0.0156421 0.0156421 4.47938 27532.1 25763.7)" width="26.05" height="21.71"/>
   <rect class="fil4" transform="matrix(4.47938 -0.0156421 0.0156421 4.47938 27692.2 25763.2)" width="26.05" height="21.71"/>
   <rect class="fil4" transform="matrix(4.47938 -0.0156421 0.0156421 4.47938 27852.4 25762.6)" width="26.05" height="21.71"/>
   <rect class="fil4" transform="matrix(4.47938 -0.0156421 0.0156421 4.47938 28012.6 25762)" width="26.05" height="21.71"/>
   <rect class="fil4" transform="matrix(4.47938 -0.0156421 0.0156421 4.47938 28172.8 25761.5)" width="26.05" height="21.71"/>
  </g>
  <g id="_1828776674496">
   <path class="fil5" d="M24236.63 20673c281.37,219.33 724.57,443.23 1340.49,966.75 -2122.88,-949.59 -1851.53,-965.63 -400.99,-1621.82 134.22,-43.78 273.74,-124.66 309.05,27.81 5.05,21.96 -97.37,119.03 -286.94,198.94 -365.21,153.89 -738.72,373.52 -961.61,428.32z"/>
   <path class="fil5" d="M27791.04 20901.85c-281.38,-219.33 -724.58,-443.24 -1340.49,-966.75 2122.88,949.58 1851.53,965.63 400.98,1621.82 -134.21,43.78 -273.74,124.66 -309.05,-27.81 -5.05,-21.96 97.37,-119.03 286.95,-198.94 365.21,-153.89 738.71,-373.52 961.61,-428.32z"/>
   <path class="fil5" d="M25930.21 19701.52c98.33,502.74 372.75,1737.2 335.19,2260.71 -118.75,-167.46 -492.96,-1707.71 -587.51,-2050.72 -36.81,-109.77 -10.19,-245.73 59.5,-303.72 69.69,-57.98 156.01,-16.04 192.82,93.73z"/>
  </g>
  <g id="_1828776680704">
   <path class="fil6 str0" d="M12655.04 14729.83c-378.31,-601.5 -1222.64,-867.23 -1791.65,-1512.79 -1072.42,-1216.79 -858.81,-975.99 -1117.69,-2335.61 110.2,1312.93 99.73,1281.42 1047.86,2394.53 543.89,638.48 1400.42,1001.66 1738.43,1555.58 15.98,29.41 173.27,119.47 202.68,103.55 29.41,-15.91 -63.66,-175.85 -79.63,-205.26z"/>
   <g>
    <path class="fil6 str1" d="M12138.16 14184.24c-47.64,-36.21 -95.12,-66.25 -142.3,-91.36l-1.63 -3.07 0.73 2.61c-571.86,-303.48 -1102.46,137.67 -1384.09,-361.6 371.55,22.81 -454.05,-568.34 -477.16,-589.5 13.37,-17.39 205.38,-225.39 -27.25,-150.5 -17.56,5.66 -34.18,16.06 -50.41,26.4 -43.79,-99.63 -215.35,-542.56 -276.97,-726.87 125.24,5.62 -54.01,-619.82 29.16,-909.91 141.74,157.37 603.49,353.55 651.59,492.21 -127.61,38.91 -464.02,-97.83 -256.7,46.79l-0.24 0.07 0.34 0c52.18,36.36 138.64,90.48 271.58,169.73 16.92,10.08 47.98,29.05 62.92,45.87 -63.48,304.05 665.78,676.41 778.53,830.27 -302.43,17.85 -468.81,-33.38 -21.89,110.03 377.39,121.22 -224.39,-42.92 281.33,427.25 91.72,85.29 188.84,185.6 268.89,296.64 -197.15,-313.16 -468.84,-519.35 -445.14,-578.12 128.42,-318.47 -23.92,-85.89 -292.27,-234.51 230.45,-15.82 520.61,160.39 -132.71,-368.13 -789.88,-639.05 22.66,-240.37 -654.45,-685.74 572.38,50.36 -116.52,-387.54 -329.89,-514.66 -179.22,-106.74 -122.54,-145.82 -163.18,-167.82 -220.89,-119.64 -110.42,703.86 -85.93,905.43 -243.81,-135.16 192.36,731.39 193.75,735.11 51.43,135.33 77.79,205.45 92.75,237.66 -14.86,80.7 107.29,137.02 213.5,204.43 74.12,47.01 203.02,190.33 282.43,281.59 -27.28,2.57 -48.5,17.31 -51.22,56.9 -39.96,585.37 1207.7,312.06 1580.5,598.57 23.71,23.61 62.01,23.51 85.62,-0.16 23.58,-23.69 23.5,-62.02 -0.19,-85.61zm-1599.13 -2054.78c0.21,-1.77 0.68,-3.61 1.3,-5.67 -0.51,1.89 -0.91,3.79 -1.3,5.67zm1305.56 1669.84c65.25,90.47 119.16,188.06 149.64,290.51 -9.13,-17.04 -20.66,-34.15 -25.94,-47.86 -33.58,-86.67 -76.51,-167.73 -123.7,-242.65z"/>
    <g>
     <path class="fil6" d="M12438.75 15188.51c-400.08,-230.71 -995.31,47.27 -1198.27,-140.39 574.19,-57.05 931.86,-211.76 1375.44,-10.31 56.03,33.6 61.75,94.58 12.84,136.21 -48.92,41.63 -133.98,48.1 -190.01,14.49z"/>
     <path id="1" class="fil7" d="M11239.09 15034.2l2.78 27.84 8.16 -24.18 18.72 15.1 20.88 12.81 23.05 10.68 25.17 8.72 27.2 6.85 29.12 5.13 30.93 3.55 32.6 2.11 34.17 0.84 35.6 -0.26 36.92 -1.21 38.11 -1.96 39.2 -2.56 40.16 -2.97 41.02 -3.2 41.76 -3.27 42.38 -3.13 42.92 -2.84 43.33 -2.35 43.64 -1.7 43.84 -0.85 43.94 0.19 43.92 1.38 43.82 2.77 43.59 4.35 43.26 6.12 42.84 8.08 42.28 10.2 41.64 12.53 40.85 15.06 39.96 17.74 38.93 20.63 -14.06 24.22 -37.19 -19.71 -38.24 -16.98 -39.19 -14.44 -40.06 -12.05 -40.84 -9.86 -41.5 -7.82 -42.06 -5.94 -42.51 -4.25 -42.86 -2.71 -43.1 -1.36 -43.22 -0.17 -43.24 0.83 -43.14 1.68 -42.95 2.33 -42.64 2.82 -42.22 3.13 -41.7 3.25 -41.08 3.22 -40.34 2.97 -39.5 2.58 -38.57 1.98 -37.54 1.23 -36.4 0.28 -35.19 -0.88 -33.86 -2.19 -32.45 -3.73 -30.96 -5.45 -29.36 -7.41 -27.65 -9.58 -25.81 -11.98 -23.82 -14.61 -21.6 -17.42 8.16 -24.18zm-8.16 24.18l-22.82 -21.1 30.98 -3.08 -8.16 24.18zm1392.23 -32.56l-14.48 23.98 1.42 0.74 -40.86 -17.65 -40.4 -15.66 -39.99 -13.75 -39.64 -11.94 -39.36 -10.2 -39.13 -8.55 -38.97 -6.99 -38.86 -5.51 -38.83 -4.1 -38.85 -2.78 -38.91 -1.54 -39.06 -0.38 -39.25 0.7 -39.5 1.7 -39.81 2.61 -40.18 3.45 -40.59 4.21 -41.07 4.89 -41.59 5.47 -42.17 5.99 -42.82 6.42 -43.5 6.76 -44.25 7.03 -45.05 7.2 -45.89 7.31 -46.81 7.31 -47.77 7.25 -48.78 7.09 -49.85 6.85 -50.97 6.54 -52.15 6.13 -53.37 5.64 -2.78 -27.84 53.05 -5.6 51.83 -6.09 50.69 -6.5 49.61 -6.83 48.6 -7.05 47.61 -7.23 46.71 -7.31 45.85 -7.29 45.05 -7.2 44.31 -7.05 43.62 -6.78 43 -6.44 42.43 -6.03 41.91 -5.51 41.45 -4.93 41.05 -4.25 40.7 -3.51 40.41 -2.65 40.18 -1.72 39.99 -0.72 39.86 0.4 39.79 1.56 39.77 2.86 39.79 4.2 39.88 5.65 39.99 7.17 40.19 8.79 40.4 10.46 40.7 12.26 41.01 14.11 41.4 16.04 41.82 18.07 1.42 0.74zm-1.42 -0.74l0.77 0.35 0.65 0.39 -1.42 -0.74zm16.13 159.58l-18.22 -21.28 0 0 3.91 -3.49 3.59 -3.56 3.29 -3.61 2.99 -3.66 2.69 -3.69 2.4 -3.72 2.12 -3.74 1.84 -3.75 1.55 -3.76 1.3 -3.77 1.03 -3.75 0.77 -3.75 0.53 -3.76 0.27 -3.72 0.01 -3.71 -0.22 -3.73 -0.48 -3.69 -0.71 -3.68 -0.96 -3.64 -1.23 -3.63 -1.47 -3.61 -1.73 -3.57 -2 -3.55 -2.26 -3.5 -2.54 -3.45 -2.81 -3.39 -3.09 -3.33 -3.38 -3.27 -3.65 -3.18 -3.94 -3.07 -4.24 -2.98 -4.55 -2.87 14.48 -23.98 5.67 3.59 5.38 3.78 5.08 3.97 4.77 4.14 4.46 4.31 4.15 4.47 3.83 4.63 3.5 4.77 3.18 4.92 2.84 5.03 2.49 5.15 2.15 5.25 1.79 5.33 1.44 5.44 1.07 5.48 0.7 5.51 0.34 5.55 -0.03 5.57 -0.41 5.6 -0.77 5.54 -1.13 5.53 -1.51 5.49 -1.86 5.41 -2.23 5.36 -2.58 5.27 -2.92 5.18 -3.28 5.08 -3.61 4.95 -3.95 4.84 -4.29 4.71 -4.61 4.56 -4.95 4.43 0 0zm-206.15 15.96l14.06 -24.22 0.21 0.13 4.77 2.7 4.94 2.52 5.08 2.31 5.22 2.11 5.36 1.92 5.46 1.7 5.58 1.5 5.69 1.3 5.74 1.09 5.82 0.89 5.88 0.67 5.94 0.47 5.96 0.27 5.97 0.05 5.99 -0.14 5.97 -0.36 5.96 -0.55 5.91 -0.76 5.87 -0.96 5.83 -1.16 5.74 -1.36 5.65 -1.55 5.57 -1.76 5.45 -1.94 5.35 -2.13 5.19 -2.31 5.05 -2.5 4.91 -2.69 4.72 -2.86 4.56 -3.03 4.36 -3.21 4.17 -3.38 18.22 21.28 -5.21 4.22 -5.42 3.97 -5.6 3.75 -5.78 3.48 -5.93 3.25 -6.09 3.02 -6.23 2.77 -6.33 2.53 -6.45 2.3 -6.55 2.06 -6.65 1.83 -6.72 1.58 -6.79 1.36 -6.83 1.12 -6.89 0.88 -6.92 0.65 -6.93 0.4 -6.95 0.18 -6.95 -0.07 -6.94 -0.31 -6.9 -0.55 -6.88 -0.79 -6.84 -1.03 -6.78 -1.29 -6.71 -1.54 -6.62 -1.78 -6.56 -2.04 -6.44 -2.3 -6.32 -2.55 -6.2 -2.83 -6.04 -3.08 -5.91 -3.36 0.21 0.13zm14.06 -24.22l0.21 0.13 -0.38 -0.23 0.17 0.1z"/>
    </g>
   </g>
  </g>
 </g>
</svg>
