<?xml version="1.0" encoding="UTF-8"?>
<!DOCTYPE svg PUBLIC "-//W3C//DTD SVG 1.1//EN" "http://www.w3.org/Graphics/SVG/1.1/DTD/svg11.dtd">
<!-- Creator: CorelDRAW 2017 -->
<svg xmlns="http://www.w3.org/2000/svg" xml:space="preserve" width="210mm" height="297mm" version="1.1" style="shape-rendering:geometricPrecision; text-rendering:geometricPrecision; image-rendering:optimizeQuality; fill-rule:evenodd; clip-rule:evenodd"
viewBox="0 0 21000 29700"
 xmlns:xlink="http://www.w3.org/1999/xlink">
 <defs>
  <style type="text/css">
   <![CDATA[
    .str0 {stroke:#2B2A29;stroke-width:20;stroke-miterlimit:22.9256}
    .fil0 {fill:#2B2A29}
    .fil2 {fill:#F7F9FD}
    .fil1 {fill:url(#id0)}
   ]]>
  </style>
  <linearGradient id="id0" gradientUnits="userSpaceOnUse" x1="9189.06" y1="13254.5" x2="12645.25" y2="13254.5">
   <stop offset="0" style="stop-opacity:1; stop-color:#FFC107"/>
   <stop offset="1" style="stop-opacity:1; stop-color:#FF7B07"/>
  </linearGradient>
 </defs>
 <g id="Layer_x0020_1">
  <metadata id="CorelCorpID_0Corel-Layer"/>
  <path class="fil0 str0" d="M10917.16 11987.04c700.01,0 1267.47,567.46 1267.47,1267.47 0,700 -567.46,1267.47 -1267.47,1267.47 -700.01,0 -1267.47,-567.47 -1267.47,-1267.47 0,-700.01 567.46,-1267.47 1267.47,-1267.47z"/>
  <path class="fil1" d="M10917.16 11526.4c954.41,0 1728.09,773.69 1728.09,1728.1 0,954.4 -773.68,1728.09 -1728.09,1728.09 -954.41,0 -1728.1,-773.69 -1728.1,-1728.09 0,-954.41 773.69,-1728.1 1728.1,-1728.1zm0 716.33c558.83,0 1011.77,452.93 1011.77,1011.77 0,558.83 -452.94,1011.77 -1011.77,1011.77 -558.83,0 -1011.77,-452.94 -1011.77,-1011.77 0,-558.84 452.94,-1011.77 1011.77,-1011.77z"/>
  <path class="fil2" d="M11180.07 12435.15c85.51,0 154.81,69.3 154.81,154.81 0,85.51 -69.3,154.82 -154.81,154.82 -85.51,0 -154.82,-69.31 -154.82,-154.82 0,-85.51 69.31,-154.81 154.82,-154.81z"/>
  <path class="fil2" d="M11426.44 12724.06c41.29,0 74.76,33.47 74.76,74.77 0,41.3 -33.47,74.77 -74.76,74.77 -41.3,0 -74.77,-33.47 -74.77,-74.77 0,-41.3 33.47,-74.77 74.77,-74.77z"/>
 </g>
</svg>
