<?xml version="1.0" encoding="UTF-8"?>
<!DOCTYPE svg PUBLIC "-//W3C//DTD SVG 1.1//EN" "http://www.w3.org/Graphics/SVG/1.1/DTD/svg11.dtd">
<!-- Creator: CorelDRAW 2017 -->
<svg xmlns="http://www.w3.org/2000/svg" xml:space="preserve" width="210mm" height="297mm" version="1.1" style="shape-rendering:geometricPrecision; text-rendering:geometricPrecision; image-rendering:optimizeQuality; fill-rule:evenodd; clip-rule:evenodd"
viewBox="0 0 21000 29700"
 xmlns:xlink="http://www.w3.org/1999/xlink">
 <defs>
  <style type="text/css">
   <![CDATA[
    .fil0 {fill:#009846}
    .fil2 {fill:#061FC2}
    .fil1 {fill:#304FFE}
   ]]>
  </style>
 </defs>
 <g id="Layer_x0020_1">
  <metadata id="CorelCorpID_0Corel-Layer"/>
  <g id="_1828774624640">
   <path class="fil0" d="M8942.63 15549.91c210.03,-195.72 516.08,-76.27 161.41,247.82 -315.97,288.77 -391.52,-33.31 -161.41,-247.82z"/>
   <path class="fil0" d="M8520.24 16145.25c-64.52,129.57 -290.23,247.49 -442.02,242.43 -212.48,-7.16 -78.19,-233.02 76.7,-314.5 135.69,-71.39 299.54,-72.21 365.32,72.07z"/>
   <path class="fil0" d="M8415.91 16711.27c319.45,-40.57 533.33,-116.02 769.15,-382.52 65.95,-74.5 94.15,-172.17 145.76,-221.53 221.99,429.56 -743.8,964.81 -914.91,604.05z"/>
   <path class="fil0" d="M10666.15 14584.98c-317.22,439.45 -726.56,561.51 -1143.73,586.54 -26.37,-58.02 -29.83,-69.63 -64.84,-128.08 -15.71,-26.2 -120.51,-101.21 -136.71,-120.37 365.68,-4.47 830.59,-74.61 1118.7,-519.85 38.07,-71.12 126.53,-97.86 197.59,-59.82 67.91,36.36 95.39,118.79 64.45,188 48.04,32.39 85.9,75.77 124.97,140.95 468.43,782.43 230.58,1526.38 -249.92,2151.45 -398.34,518.14 -677.81,602.86 -1080.11,267.28 77.35,-104.95 76.29,-161.15 120.33,-232.23 469.45,413 832.93,309.12 1228.65,-660.52 151.69,-371.72 127.46,-1187.11 -179.38,-1613.35z"/>
   <path class="fil0" d="M8997.61 14881.15c-255.73,745.83 -941.06,832.21 -1491.83,985.67 -70.35,730.59 1890.13,2180 2061.08,339.87 33.02,-355.3 -198.24,-1042.39 -569.25,-1325.54zm16.35 -54.7c49.21,15.06 92.6,42.21 142.63,87.55 600.43,544.33 590.37,1238.33 343.2,1893.97 -329.32,873.54 -1391.97,372.54 -1760.18,-94.45 -1316.2,-1669.22 645.35,-628.15 1018.39,-1928.4 13.99,-70.27 82.31,-115.88 152.58,-101.89 67.13,13.36 111.78,76.36 103.38,143.22z"/>
   <path class="fil0" d="M9524.39 15404.79c138.76,-41.18 378.94,43.48 478.75,157.96 139.67,160.28 -117.11,216.09 -282.32,158.37 -144.76,-50.55 -257.09,-169.83 -196.43,-316.33z"/>
   <path class="fil0" d="M10744.19 15353.44c-143.31,-20.31 -368.41,98.77 -450.29,226.68 -114.57,179.09 147.63,196.51 302.55,115.11 135.74,-71.3 229.3,-205.81 147.74,-341.79z"/>
   <path class="fil0" d="M10555.11 16562.88c-255.39,-135.58 -451.37,-190.91 -762.34,-117.42 -86.94,20.53 -158.18,77.6 -221.6,87.1 59.44,-430.08 1045.11,-322.95 983.94,30.32z"/>
  </g>
  <g id="_1828042367216">
   <circle class="fil1" transform="matrix(3.52529 1.09269 -1.09269 3.52529 32692.7 8128.62)" r="85.99"/>
   <path class="fil1" d="M32760.44 8715.6c335.59,-69.99 807.03,-802.82 856.35,-834.65 35.38,240.9 -493.97,924.26 -830.67,1022.27 -51.8,7.09 -99.56,-29.16 -106.65,-80.97 -7.09,-51.8 29.17,-99.56 80.97,-106.65z"/>
   <path class="fil1" d="M32773.21 9762.34c-131.18,85.88 -450.21,321.44 -536.17,469.56 18.75,118.63 152.95,930.81 143.86,958.74 -129.24,-139.95 -110.49,-230.46 -184.41,-497.39 -178.58,-644.96 -74.4,-715.58 508.32,-1117.68 51.58,-18.89 108.69,7.59 127.59,59.18 18.89,51.59 -7.6,108.7 -59.19,127.59z"/>
   <path class="fil1" d="M32780.64 9491.7c479.75,-142.63 835.86,1626.05 791.4,1826.98 -203.62,-318.76 -308.34,-1414.55 -753.41,-1636.29 -37.77,-0.65 -73.49,-22.9 -89.53,-59.8 -21.91,-50.39 1.16,-108.98 51.54,-130.89z"/>
   <path class="fil1" d="M32557.37 8631.79c-333.04,21.69 -1022.23,-571.31 -1049.14,-573.82 80.37,266.12 721.19,756.97 1074.83,761.44 51.8,-7.09 88.06,-54.84 80.97,-106.65 -7.1,-51.8 -54.85,-88.06 -106.66,-80.97z"/>
   <path class="fil1" d="M32628 9764.49c-88.33,-1307.62 -110.14,-671.98 46.59,-1907.52 131.32,1178.16 60.64,597.24 211.24,1742.78 45.49,71.18 40.34,92.43 -30.77,137.87 -71.15,45.49 -181.57,98.05 -227.06,26.87z"/>
  </g>
  <path class="fil2" d="M36147.53 8895.61c-725.42,-166.03 -419.61,951.55 -56.96,640.94 1602.4,-1372.57 -1860.92,-2237.28 -176.2,-2292.03 1255.13,-40.81 926.74,-1652.5 1710.23,1189.96 614.37,2228.95 -1308.16,1408.17 -651.83,435.67 259.72,-384.85 625.73,469.06 457.09,312.48 -242.51,-224.72 -271.13,-152.94 -336.45,-88.85 -154.5,151.62 -34.25,584.16 83.97,620.59 957.85,295.32 -26.4,-2120.15 -280.38,-2720.06 -409.48,476.69 -561.76,436.83 -1176.7,455.11 508.34,550.71 1393.1,936.94 907.28,1773.37 -1019.06,1754.5 -1840.22,-776.87 -402.19,-468.24 68.07,22.28 91.18,33.74 131.83,111.54 33.16,63.5 -141.62,51.79 -209.69,29.52z"/>
 </g>
</svg>
