<?xml version="1.0" encoding="UTF-8"?>
<!DOCTYPE svg PUBLIC "-//W3C//DTD SVG 1.1//EN" "http://www.w3.org/Graphics/SVG/1.1/DTD/svg11.dtd">
<!-- Creator: CorelDRAW 2017 -->
<svg xmlns="http://www.w3.org/2000/svg" xml:space="preserve" width="210mm" height="297mm" version="1.1" style="shape-rendering:geometricPrecision; text-rendering:geometricPrecision; image-rendering:optimizeQuality; fill-rule:evenodd; clip-rule:evenodd"
viewBox="0 0 21000 29700"
 xmlns:xlink="http://www.w3.org/1999/xlink">
 <defs>
  <style type="text/css">
   <![CDATA[
    .fil1 {fill:#061FC2}
    .fil0 {fill:#304FFE}
   ]]>
  </style>
 </defs>
 <g id="Layer_x0020_1">
  <metadata id="CorelCorpID_0Corel-Layer"/>
  <g id="_1828000216944">
   <circle class="fil0" transform="matrix(3.52529 1.09269 -1.09269 3.52529 10629.4 13413.7)" r="85.99"/>
   <path class="fil0" d="M10697.09 14000.68c335.59,-69.99 807.03,-802.82 856.35,-834.65 35.38,240.9 -493.97,924.26 -830.67,1022.27 -51.8,7.09 -99.56,-29.16 -106.65,-80.97 -7.09,-51.8 29.17,-99.56 80.97,-106.65z"/>
   <path class="fil0" d="M10709.86 15047.42c-131.18,85.88 -450.21,321.44 -536.17,469.56 18.75,118.63 152.95,930.81 143.86,958.74 -129.24,-139.95 -110.49,-230.46 -184.41,-497.39 -178.58,-644.96 -74.4,-715.58 508.32,-1117.68 51.58,-18.89 108.69,7.59 127.59,59.18 18.89,51.59 -7.6,108.7 -59.19,127.59z"/>
   <path class="fil0" d="M10717.29 14776.78c479.75,-142.63 835.86,1626.05 791.4,1826.98 -203.62,-318.76 -308.34,-1414.55 -753.41,-1636.29 -37.77,-0.65 -73.49,-22.9 -89.53,-59.8 -21.91,-50.39 1.16,-108.98 51.54,-130.89z"/>
   <path class="fil0" d="M10494.02 13916.87c-333.04,21.69 -1022.23,-571.31 -1049.14,-573.82 80.37,266.12 721.19,756.97 1074.83,761.44 51.8,-7.09 88.06,-54.84 80.97,-106.65 -7.1,-51.8 -54.85,-88.06 -106.66,-80.97z"/>
   <path class="fil0" d="M10564.65 15049.57c-88.33,-1307.62 -110.14,-671.98 46.59,-1907.52 131.32,1178.16 60.64,597.24 211.24,1742.78 45.49,71.18 40.34,92.43 -30.77,137.87 -71.15,45.49 -181.57,98.05 -227.06,26.87z"/>
  </g>
  <path class="fil1" d="M36147.53 8895.61c-725.42,-166.03 -419.61,951.55 -56.96,640.94 1602.4,-1372.57 -1860.92,-2237.28 -176.2,-2292.03 1255.13,-40.81 926.74,-1652.5 1710.23,1189.96 614.37,2228.95 -1308.16,1408.17 -651.83,435.67 259.72,-384.85 625.73,469.06 457.09,312.48 -242.51,-224.72 -271.13,-152.94 -336.45,-88.85 -154.5,151.62 -34.25,584.16 83.97,620.59 957.85,295.32 -26.4,-2120.15 -280.38,-2720.06 -409.48,476.69 -561.76,436.83 -1176.7,455.11 508.34,550.71 1393.1,936.94 907.28,1773.37 -1019.06,1754.5 -1840.22,-776.87 -402.19,-468.24 68.07,22.28 91.18,33.74 131.83,111.54 33.16,63.5 -141.62,51.79 -209.69,29.52z"/>
 </g>
</svg>
