<?xml version="1.0" encoding="UTF-8"?>
<!DOCTYPE svg PUBLIC "-//W3C//DTD SVG 1.1//EN" "http://www.w3.org/Graphics/SVG/1.1/DTD/svg11.dtd">
<!-- Creator: CorelDRAW 2017 -->
<svg xmlns="http://www.w3.org/2000/svg" xml:space="preserve" width="210mm" height="297mm" version="1.1" style="shape-rendering:geometricPrecision; text-rendering:geometricPrecision; image-rendering:optimizeQuality; fill-rule:evenodd; clip-rule:evenodd"
viewBox="0 0 21000 29700"
 xmlns:xlink="http://www.w3.org/1999/xlink">
 <defs>
  <style type="text/css">
   <![CDATA[
    .fil0 {fill:#061FC2}
   ]]>
  </style>
 </defs>
 <g id="Layer_x0020_1">
  <metadata id="CorelCorpID_0Corel-Layer"/>
  <path class="fil0" d="M10054.12 15440.67c-725.42,-166.03 -419.61,951.55 -56.96,640.94 1602.4,-1372.57 -1860.92,-2237.28 -176.2,-2292.03 1255.13,-40.81 926.74,-1652.5 1710.23,1189.96 614.37,2228.95 -1308.16,1408.17 -651.83,435.67 259.72,-384.85 625.73,469.06 457.09,312.48 -242.51,-224.72 -271.13,-152.94 -336.45,-88.85 -154.5,151.62 -34.25,584.16 83.97,620.59 957.85,295.32 -26.4,-2120.15 -280.38,-2720.06 -409.48,476.69 -561.76,436.83 -1176.7,455.11 508.34,550.71 1393.1,936.94 907.28,1773.37 -1019.06,1754.5 -1840.22,-776.87 -402.19,-468.24 68.07,22.28 91.18,33.74 131.83,111.54 33.16,63.5 -141.62,51.79 -209.69,29.52z"/>
 </g>
</svg>
